<svg xmlns="http://www.w3.org/2000/svg" xmlns:xlink="http://www.w3.org/1999/xlink" viewBox="0 0 900 900"><defs><style>.cls-1{fill:none;}.cls-2{isolation:isolate;}.cls-3{clip-path:url(#clip-path);}.cls-4{fill:#eab2c3;}.cls-5{fill:url(#linear-gradient);}.cls-6{fill:#5e0720;}.cls-7{fill:url(#linear-gradient-2);}.cls-8{fill:#1c1e23;}.cls-40,.cls-9{fill:#ffd6b5;}.cls-10{fill:#ffe8d6;}.cls-11,.cls-47{fill:#fcd6b5;}.cls-11,.cls-15,.cls-17,.cls-19,.cls-23,.cls-24,.cls-28,.cls-37,.cls-39,.cls-47{mix-blend-mode:multiply;}.cls-11,.cls-45{opacity:0.35;}.cls-12,.cls-48{fill:#151a21;}.cls-13{fill:#ffc18f;}.cls-14,.cls-20,.cls-27{fill:#fff;}.cls-15,.cls-29{fill:#b8654c;}.cls-15{opacity:0.38;}.cls-16{fill:#fce2cc;}.cls-17,.cls-18,.cls-19,.cls-28,.cls-44{opacity:0.4;}.cls-17{fill:url(#linear-gradient-3);}.cls-18,.cls-30{fill:#fce9d9;}.cls-19{fill:url(#linear-gradient-4);}.cls-20{opacity:0.6;}.cls-21{fill:#c97875;}.cls-22{fill:#e1adab;}.cls-23,.cls-24,.cls-26{fill:#cc7977;}.cls-23,.cls-39{opacity:0.17;}.cls-24{opacity:0.48;}.cls-25{fill:#3a253b;}.cls-27{opacity:0.77;}.cls-28{fill:url(#linear-gradient-5);}.cls-31{fill:#f7a37d;}.cls-32{fill:#fff2e8;}.cls-33{fill:#f5d7c9;}.cls-34,.cls-37{fill:#d0d0d0;}.cls-35{fill:#bf7767;}.cls-36{fill:#4a1818;}.cls-38{fill:#ea114f;}.cls-39{fill:url(#linear-gradient-6);}.cls-40{mix-blend-mode:darken;}.cls-41{fill:#633;}.cls-42{fill:#222834;}.cls-43,.cls-44,.cls-45{fill:#ad6243;}.cls-43{opacity:0.11;}.cls-46{fill:#5f7187;}.cls-47{opacity:0.96;}.cls-48{opacity:0.36;}.cls-49{fill:#d4d1e3;}.cls-50{clip-path:url(#clip-path-2);}.cls-51{fill:url(#linear-gradient-7);}</style><clipPath id="clip-path"><rect class="cls-1" y="-90.63" width="900" height="1000"/></clipPath><linearGradient id="linear-gradient" x1="42.51" y1="978.8" x2="363.63" y2="752.41" gradientTransform="matrix(-1, 0, 0, 1, 1171.06, 0)" gradientUnits="userSpaceOnUse"><stop offset="0" stop-color="#eab2c3"/><stop offset="1" stop-color="#bd0039"/></linearGradient><linearGradient id="linear-gradient-2" x1="711.24" y1="1074.54" x2="1480.52" y2="339.91" xlink:href="#linear-gradient"/><linearGradient id="linear-gradient-3" x1="246.14" y1="503.06" x2="107.53" y2="359.83" gradientUnits="userSpaceOnUse"><stop offset="0.19" stop-color="#fff"/><stop offset="0.27" stop-color="#fef8f7"/><stop offset="0.39" stop-color="#fbe4e1"/><stop offset="0.55" stop-color="#f7c3bd"/><stop offset="0.72" stop-color="#f1968b"/><stop offset="0.91" stop-color="#ea5c4c"/><stop offset="1" stop-color="#e63f2c"/></linearGradient><linearGradient id="linear-gradient-4" x1="715.02" y1="379.74" x2="545.81" y2="463.84" xlink:href="#linear-gradient-3"/><linearGradient id="linear-gradient-5" x1="499.05" y1="464.29" x2="581.06" y2="643.33" xlink:href="#linear-gradient-3"/><linearGradient id="linear-gradient-6" x1="369.83" y1="426.67" x2="508.32" y2="426.67" xlink:href="#linear-gradient-3"/><clipPath id="clip-path-2"><rect class="cls-1" x="966.03" y="-48.46" width="900" height="1000"/></clipPath><linearGradient id="linear-gradient-7" x1="693.82" y1="725.05" x2="1901.7" y2="725.05" gradientUnits="userSpaceOnUse"><stop offset="0" stop-color="#222834"/><stop offset="1" stop-color="#425c9e"/></linearGradient></defs><g class="cls-2"><g id="Layer_3" data-name="Layer 3"><g class="cls-3"><path class="cls-4" d="M935,767.48s-71.62-16.17-92.41-57.75c0,0,13.86-92.41-85.48-134,0,0-485.13-127.06-584.47-318.8,0,0-6.93-73.93-106.26-92.41,0,0-113.2-16.17-131.68,69.3,0,0-11.55,62.38,11.55,92.41,0,0,120.13,143.23,80.85,173.26,0,0-71.61,0-64.68,76.24,0,0-9.24,37,23.1,60.06,0,0,90.1,50.82,64.69,85.48,0,0-39.28,53.13-113.2,87.78,0,0-214.85-78.54-217.16,50.83,0,0-6.93,30,11.55,48.51l-4.62,37H946.47Z"/><path class="cls-5" d="M848.09,905.17c-7.57-12.62-14.89-25.39-21.62-38.48-3.38-6.58-6.62-13.24-9.66-20-.93-2.07-1.93-4.15-2.75-6.27.33.82,1.26,3.07.45,1-.33-.83-.68-1.65-1-2.48q-2-5-3.81-10c-2.61-7.25-4.93-14.62-6.87-22.08q-1.56-6-2.78-12.07c-.37-1.87-2.58-8.34-1.85-10.24-.25,1,.53,3.85.2.61-.09-.87-.19-1.75-.28-2.62-.17-1.75-.32-3.5-.44-5.25-.25-3.79-.38-7.59-.37-11.4s.16-7.62.46-11.42c.1-1.24-.13-5.27.61-6.16,0,0-.69,4.35-.2,1.62.16-.87.28-1.76.43-2.63a111.11,111.11,0,0,1,2.48-11.42c.42-1.5.94-3,1.5-4.41.06-.15.12-.3.19-.45-.47,1.25-.55,2.48.48-1.08,2.64-5.62,5.42-11.18,7.9-16.87,3.26-7.46,6.56-15,8-23.08a82.39,82.39,0,0,0,.23-27.8c-3.61-24.15-16.11-47.72-29.9-67.57-.49-.71-1-1.42-1.5-2.14,65.42,45.5,54.67,117.26,54.67,117.26C863.42,751.31,935,767.48,935,767.48l11.43,177.88H873.74Q860.34,925.64,848.09,905.17Z"/><path class="cls-6" d="M872.5,946.2c-9-13.19-17.6-26.74-25.7-40.26h0C838,891.27,831.12,879,825.14,867.38c-3.59-7-6.76-13.55-9.69-20.07l-.72-1.59c-.71-1.54-1.45-3.14-2.07-4.76a1.09,1.09,0,0,1-.08-.31.36.36,0,0,1,0-.09l-.43-1c-1.36-3.39-2.65-6.77-3.83-10.07-2.72-7.55-5-15-6.91-22.21-1.07-4.11-2-8.2-2.8-12.15-.08-.43-.29-1.18-.53-2.06-1.11-4-1.9-7.2-1.28-8.95,0-.47-.1-.93-.14-1.39-.18-1.76-.32-3.54-.44-5.3-.27-3.89-.39-7.76-.38-11.5s.16-7.73.46-11.54c0-.29,0-.76,0-1.3,0-2.56.09-4.37.74-5.42l.09-.59a115.89,115.89,0,0,1,2.51-11.57c.39-1.36.87-2.76,1.55-4.54l.21-.5a1.45,1.45,0,0,1,.28-.43c0-.15.09-.31.14-.48a.85.85,0,0,1,.09-.22c.83-1.79,1.69-3.57,2.54-5.35,1.8-3.75,3.65-7.62,5.34-11.48,3.18-7.3,6.48-14.84,7.87-22.74a80.7,80.7,0,0,0,.22-27.32c-3-20.49-13-43-29.64-66.93l-1.12-1.59-.38-.54a1.5,1.5,0,0,1,2.08-2.1C823,615,836.22,646,841.29,667.82s3.28,38.57,2.89,41.65c5.94,11.61,20,28.42,53,43.34A226.05,226.05,0,0,0,935.37,766a1.49,1.49,0,0,1,1.16,1.36L948,945.27a1.49,1.49,0,0,1-1.5,1.59H873.74A1.49,1.49,0,0,1,872.5,946.2Zm61.11-177.52A232.74,232.74,0,0,1,896,755.56c-34.29-15.45-48.69-33.09-54.72-45.16a1.47,1.47,0,0,1-.14-.9c0-.17,2.58-18-2.81-41.12A123.75,123.75,0,0,0,794.28,599C809,621.39,817.94,642.53,820.84,662a83.51,83.51,0,0,1-.24,28.28c-1.45,8.25-4.82,16-8.07,23.42-1.71,3.91-3.58,7.81-5.38,11.58q-1.26,2.61-2.49,5.22c-.49,1.68-.74,2.52-1.2,2.95-.39,1.05-.69,2-.94,2.87a109.51,109.51,0,0,0-2.44,11.26c-.07.38-.13.77-.19,1.15s-.15,1-.24,1.5a6.73,6.73,0,0,1-.33,1.31c0,.6,0,1.18,0,1.56,0,.63,0,1.17,0,1.52-.3,3.73-.45,7.53-.46,11.31s.11,7.47.37,11.29c.12,1.73.26,3.48.43,5.2,0,.49.1,1,.16,1.45l.12,1.17a4.37,4.37,0,0,1-.13,2.4c.31,1.68.89,3.78,1.18,4.82s.48,1.74.58,2.27c.78,3.9,1.71,7.93,2.76,12,1.85,7.1,4.15,14.49,6.83,21.95,1.18,3.27,2.45,6.62,3.79,10l.42,1,.6,1.48c.08.21.17.44.24.68l0,0h0c.41,1,.85,1.92,1.28,2.85.25.54.49,1.07.73,1.61,2.91,6.47,6.06,13,9.63,19.93,6,11.57,12.8,23.77,21.56,38.39h0c7.94,13.25,16.4,26.52,25.17,39.46h70.34ZM848.08,905.17h0Z"/><path class="cls-7" d="M-280.11,859.89c2.31-129.37,217.16-50.83,217.16-50.83C11,774.41,50.25,721.28,50.25,721.28c25.41-34.66-64.69-85.48-64.69-85.48-32.34-23.1-23.1-60.06-23.1-60.06-6.93-76.24,64.68-76.24,64.68-76.24,39.28-30-80.85-173.26-80.85-173.26-23.1-30-11.55-92.41-11.55-92.41,18.48-85.47,131.68-69.3,131.68-69.3,99.33,18.48,106.26,92.41,106.26,92.41,18.85,36.38,51.6,70.43,92.28,101.73a152.06,152.06,0,0,0-34.21-2.36c-16.12,1-32.54,4.88-44.52,16.4-13.63,13.12-15.7,32.36-11.81,50,2.1,9.5,6.29,18.48,8.9,27.85a143.21,143.21,0,0,1,3.43,15.3c.14.84.22,1.71.39,2.54-.1-.48-.18-.9-.26-1.28-.21-1.72-.95-4.75,0,0,0,.11,0,.21,0,.3.22,2.48.35,5,.36,7.47,0,2.28-.14,4.54-.29,6.82-.18.92-.35,1.85-.56,2.76a52.51,52.51,0,0,1-1.51,5.25c-1.84,2.66-1.56,2.95-.95,2.07-.11.24-.22.47-.33.68a46.08,46.08,0,0,1-2.59,3.94c.48-.84.4-1-.94,1.4l-.24.27c-.89,1-1.83,1.93-2.79,2.85s-1.68,1.55-2.56,2.29c-.55.47-.9.77-1.1,1-2.14,1.36-5.53,3.22-6,3.49-17.44,10.18-38.44,17.63-47.95,37-12,24.37-6.2,54.3,7.43,76.75,23,37.94,63.74,60.28,93.44,92.22q3,3.18,5.76,6.51a38.11,38.11,0,0,0,2.54,3.25l.08.1a92,92,0,0,1,7.79,13,22.92,22.92,0,0,0,1.33,3.52,45,45,0,0,1,1,4.58,5.91,5.91,0,0,0,.67,2.59c0,.81.08,1.62.08,2.43,0,1.08-.07,2.15-.13,3.22-.24.94-.49,1.88-.73,2.83l-.8,1.19a4.32,4.32,0,0,0-1.16,1.77,3.43,3.43,0,0,0-2.21,1.65,17.76,17.76,0,0,0-2.52,1.19c-1.23.42-2.46.82-3.73,1.15-1.44.38-2.9.7-4.36,1,.55-.15.07-.13-3.23.55-17.73,1.8-35.74.43-53.52,1.07-22.09.8-44.95,3-65.92,10.37-24.47,8.59-44.83,23-60.3,43.84-15.2,20.51-23.16,45.72-25.69,70.9a146.42,146.42,0,0,0,5.32,55.05H-273.18l4.62-37C-287,889.92-280.11,859.89-280.11,859.89Z"/><path class="cls-6" d="M-274.3,946.36a1.47,1.47,0,0,1-.36-1.18l4.53-36.25c-17.73-18.37-12.05-46.59-11.47-49.22C-281.09,833-271.47,813-253,800.33c24.67-16.91,64.27-20.81,117.71-11.58A477.48,477.48,0,0,1-63,807.44C9.31,773.36,48.65,720.91,49,720.39a21.32,21.32,0,0,0,3.65-17.77c-6.6-30.63-67.25-65.17-67.87-65.51l-.13-.09c-31.35-22.39-24.49-58-23.75-61.38-2.1-23.69,3.08-42.55,15.41-56,18.33-20.07,46-21.48,50.27-21.58,3.81-3.09,6.07-7.6,6.72-13.42,5-45.62-87.27-156.27-88.24-157.44-9.79-12.72-14.75-32.36-14.75-58.38a217,217,0,0,1,2.92-35.25c7.69-35.57,33.25-59,73.92-67.86,30.52-6.62,59.15-2.66,59.5-2.61C118.51,172.7,145,197.61,158,216.82c13.4,19.68,15.81,37.11,16.11,39.68,17.49,33.63,48.35,67.61,91.73,101a1.5,1.5,0,0,1-1.17,2.67c-12.75-2.17-23.83-2.93-33.87-2.34-19.33,1.14-33.58,6.37-43.57,16-6.81,6.54-17.34,21.57-11.38,48.59a131.29,131.29,0,0,0,4.89,15.73c1.4,3.92,2.85,8,4,12a144.53,144.53,0,0,1,3.47,15.46c0,.35.1.69.14,1s.13,1,.23,1.44h0a1.46,1.46,0,0,1-.07.83c.15,2,.23,4,.24,5.95,0,2.21-.13,4.42-.27,6.55l0,.38a1.37,1.37,0,0,1,0,.19l-.08.41c-.16.8-.31,1.61-.5,2.41a55.62,55.62,0,0,1-1.55,5.38,1.3,1.3,0,0,1-.19.37q-.43.65-.69,1.05a1.49,1.49,0,0,1-.13.8c-.12.27-.25.53-.38.77a33.89,33.89,0,0,1-2.11,3.27l-.55.8a1.49,1.49,0,0,1-.37.38c-.13.23-.3.52-.5.89a1.88,1.88,0,0,1-.16.23c-.09.11-.18.23-.28.33-.9,1-1.86,2-2.87,2.92-.79.76-1.65,1.53-2.62,2.35-.53.46-.86.74-1.05.93l-.22.16c-1.74,1.12-4.26,2.52-5.46,3.2l-.58.33c-3.58,2.09-7.36,4.09-11,6-14.25,7.54-29,15.34-36.34,30.35-12.65,25.76-4.49,55.78,7.37,75.3,14.1,23.22,35.31,40.91,55.83,58,12.78,10.65,26,21.68,37.42,34,2.12,2.28,4,4.42,5.81,6.56.08.1.29.38.55.74.41.56,1.49,2,1.81,2.34a1.42,1.42,0,0,1,.24.25l.09.12a93.62,93.62,0,0,1,7.92,13.17,1.78,1.78,0,0,1,.14.5,9.71,9.71,0,0,0,.72,1.9,11.59,11.59,0,0,1,.54,1.32A26.91,26.91,0,0,1,240,743c.08.42.15.84.23,1.26a1,1,0,0,1,0,.45,6.43,6.43,0,0,0,.56,1.84,1.52,1.52,0,0,1,.12.52l0,.46c0,.68.06,1.36.06,2,0,.91-.05,1.81-.1,2.68l0,.61a1,1,0,0,1,0,.3l-.2.77c-.18.68-.35,1.36-.53,2a1.46,1.46,0,0,1-.21.48l-.78,1.17a1.42,1.42,0,0,1-.33.36,3.12,3.12,0,0,0-.69,1.14,1.5,1.5,0,0,1-.92.87,3.07,3.07,0,0,0-1.29.76,1.51,1.51,0,0,1-.79.84l-.68.29a11,11,0,0,0-1.6.77,1.27,1.27,0,0,1-.37.18c-1.12.38-2.45.82-3.83,1.18s-2.72.66-4.45,1a1.68,1.68,0,0,1-.5,0c-.42.07-1.22.22-2.72.53l-.15,0c-10.93,1.11-22.09,1-32.89.94-6.81,0-13.85-.11-20.73.14-18.78.68-43.19,2.46-65.47,10.28C77.07,785.64,57,800.22,42.14,820.3c-13.88,18.73-22.66,43-25.4,70.16A145.22,145.22,0,0,0,22,945a1.5,1.5,0,0,1-1.45,1.91H-273.18A1.49,1.49,0,0,1-274.3,946.36Zm288.05-56.2c2.8-27.71,11.78-52.48,26-71.64,15.25-20.58,35.77-35.5,61-44.37,22.67-7.95,47.37-9.76,66.37-10.45,6.94-.25,14-.19,20.85-.14,10.7.09,21.75.17,32.49-.92A29.12,29.12,0,0,1,224,762c1.49-.3,2.73-.58,3.87-.88s2.42-.71,3.45-1.06a15.16,15.16,0,0,1,1.95-.93l.17-.07a5.31,5.31,0,0,1,2.15-1.65,5.7,5.7,0,0,1,1.14-1.59l.55-.83c.15-.6.31-1.2.47-1.8l.16-.64,0-.46c0-.86.09-1.69.09-2.52,0-.63,0-1.25-.06-1.88v-.21a7.59,7.59,0,0,1-.69-2.84c-.07-.36-.14-.73-.2-1.1a25.6,25.6,0,0,0-.68-3.12c-.07-.21-.25-.61-.43-1a12.41,12.41,0,0,1-.92-2.52,89.74,89.74,0,0,0-7.55-12.52,23.3,23.3,0,0,1-2.14-2.71c-.2-.27-.35-.49-.42-.57-1.76-2.1-3.62-4.21-5.71-6.45C208,702.54,194.81,691.58,182.1,681c-20.71-17.26-42.11-35.12-56.48-58.77-12.26-20.19-20.68-51.33-7.5-78.18,7.79-15.87,23-23.91,37.64-31.68,3.63-1.92,7.38-3.91,10.91-6l.62-.35c1.16-.65,3.54-2,5.21-3.05.22-.2.55-.49,1.05-.91.92-.79,1.74-1.52,2.5-2.24.95-.91,1.86-1.84,2.72-2.78l.09-.1a7,7,0,0,1,1.66-2.41c.54-.77,1-1.5,1.49-2.26,0-.94.76-2.1,1.56-3.25.55-1.66,1-3.31,1.4-4.91.18-.76.32-1.52.47-2.28l.08-.61c.14-2.18.27-4.24.26-6.35,0-2.34-.13-4.81-.36-7.34l0-.2a12.31,12.31,0,0,1-.47-3.22c-.75-4.18-1.76-8.5-3.05-13.16-1.11-4-2.54-8-3.92-11.84a133.06,133.06,0,0,1-5-16.1c-6.27-28.45,5-44.41,12.23-51.4,10.53-10.13,25.4-15.63,45.47-16.81a143.46,143.46,0,0,1,28.8,1.47c-41.43-32.58-71.06-65.76-88.11-98.66a1.58,1.58,0,0,1-.16-.55c0-.19-1.89-18.46-15.72-38.71C142.71,199.69,116.86,175.44,66.2,166c-.28,0-28.45-3.93-58.45,2.6C-9.78,172.42-24.49,179-36,188.14c-14.31,11.4-23.67,26.88-27.8,46-.11.61-11.16,62.06,11.23,91.17C-48.72,329.86,41.5,438,36.32,484.92c-.76,6.85-3.54,12.16-8.27,15.77a1.49,1.49,0,0,1-.91.31c-.29,0-30,.24-48.57,20.61-11.78,12.9-16.7,31.07-14.62,54a1.39,1.39,0,0,1,0,.5c-.09.36-8.58,36.22,22.45,58.44A296.43,296.43,0,0,1,18.22,656c21.91,17,34.49,32.5,37.4,46a24.19,24.19,0,0,1-4.17,20.18c-.39.53-40.35,53.83-113.77,88.25a1.48,1.48,0,0,1-1.15.05c-1.29-.47-130.5-47-187.85-7.66-17.65,12.1-26.83,31.31-27.29,57.1a1.55,1.55,0,0,1,0,.31c-.07.3-6.52,29.46,11.14,47.12a1.49,1.49,0,0,1,.43,1.25l-4.41,35.27H18.6A147.67,147.67,0,0,1,13.75,890.16ZM236,760.63h0Z"/><path class="cls-4" d="M139.28,222.15a101.6,101.6,0,0,1,7.06,11.93c.23.6.53,1.22.72,1.77.61,1.76,1.16,3.54,1.62,5.35a18.09,18.09,0,0,1,.36,2c-.25-.08-.31.83.56,2.8,0,.48.06,1,.08,1.45.06,1.65,0,3.31-.06,5,0,.15,0,.29,0,.44-.78,2.57-1.61,5.3-2.29,7.92l-.46.89c-.68,1.22-1.46,2.37-2.2,3.55-.15.19-.31.39-.47.57-1,1.11-2.06,2.18-3.17,3.19-.29.26-.61.51-.93.76-1.06.68-2.1,1.38-3.2,2-.93.52-2,.93-2.93,1.41l-.71.24c-1.32.42-2.66.8-4,1.11-.27.07-.95.19-1.64.31-1.2.09-2.85.24-3.36.25-1.5,0-3,0-4.51-.09l-.38,0a40.32,40.32,0,0,0-4.3-.75c-2.66-.62-5.18-1.68-7.75-2.55a16.29,16.29,0,0,0-1.91-.6c-.81-.41-1.63-.8-2.43-1.22q-2.55-1.33-5-2.86c-3-1.86-7.56-4.12-9.75-6.85.3.38,4.07,3.22.94.73l-1.78-1.42c-1.36-1.09-2.72-2.2-4.07-3.31-12.26-10.07-24.44-20.91-39-27.55A154.61,154.61,0,0,0-5.28,215.7c-20.36-1.94-41.92,2.65-59,14.06,21.15-80.88,130.71-65.23,130.71-65.23,34.41,6.4,57.72,19.46,73.51,33.79C135.42,205.44,134.52,215.29,139.28,222.15Z"/><path class="cls-6" d="M119.61,276.49l-.41,0a1.58,1.58,0,0,1-.42-.09,10.43,10.43,0,0,0-2.21-.4,18.6,18.6,0,0,1-1.91-.3,51.16,51.16,0,0,1-5.58-1.77c-.77-.28-1.53-.56-2.3-.81l-.14-.06a11.5,11.5,0,0,0-1.68-.52,1.88,1.88,0,0,1-.3-.12l-1.06-.53c-.46-.22-.93-.45-1.38-.69-1.84-1-3.51-1.92-5.08-2.92-.68-.42-1.44-.87-2.25-1.34-2.79-1.64-6-3.49-7.82-5.77l-.66-.53c-1.37-1.1-2.73-2.2-4.08-3.32s-2.91-2.4-4.37-3.61c-10.64-8.83-21.65-18-34.31-23.74A152.76,152.76,0,0,0-5.42,217.19c-20.77-2-41.93,3.06-58,13.82a1.52,1.52,0,0,1-1.71,0,1.49,1.49,0,0,1-.58-1.6c8.8-33.66,34.54-55.8,74.43-64,29.94-6.18,57.66-2.35,58-2.3,30.57,5.69,55.55,17.18,74.25,34.16a1.5,1.5,0,0,1,.26,1.91c-4.52,7.13-4.8,16.25-.69,22.18h0a101.73,101.73,0,0,1,7.16,12.1l.07.14c.09.24.2.49.3.74s.31.73.43,1.08c.64,1.8,1.2,3.64,1.66,5.46a18.47,18.47,0,0,1,.39,2.21,1.46,1.46,0,0,1-.11.8,9.09,9.09,0,0,0,.56,1.59,1.46,1.46,0,0,1,.12.51c0,.5.07,1,.09,1.49.06,1.72,0,3.44-.06,5.11l0,.38,0,.11a1,1,0,0,1,0,.3c-.75,2.42-1.6,5.22-2.28,7.86a1.57,1.57,0,0,1-.12.3l-.07.14c-.13.27-.27.53-.41.79-.48.87-1,1.69-1.51,2.48l-.72,1.14a1,1,0,0,1-.12.17l-.08.1-.44.51c-1,1.14-2.13,2.25-3.27,3.29-.29.27-.62.53-1,.84l-.12.08-.61.4c-.86.55-1.74,1.12-2.67,1.64-.64.36-1.3.66-1.94,1l-1.06.49-.21.09-.7.24c-1.39.44-2.78.83-4.14,1.14-.28.07-1,.2-1.72.33l-.15,0-.91.07c-1.27.1-2.13.17-2.52.18h-1.13C122,276.59,120.8,276.56,119.61,276.49Zm9.25-3.43c1.28-.3,2.59-.66,3.9-1.08l.59-.2,1.06-.49c.61-.28,1.18-.54,1.71-.84.85-.48,1.65-1,2.51-1.55l.57-.37c.27-.21.54-.42.78-.64,1.07-1,2.1-2,3.06-3.09.13-.13.24-.27.36-.41v0l.69-1.09c.51-.79,1-1.54,1.41-2.32.13-.23.25-.46.37-.7.68-2.59,1.5-5.31,2.23-7.68,0-.08,0-.15,0-.23.1-1.58.12-3.2.06-4.82l-.06-1.14c-.81-1.92-.82-2.95-.65-3.52a12.2,12.2,0,0,0-.24-1.3c-.45-1.74-1-3.49-1.59-5.22-.1-.28-.23-.59-.36-.9s-.22-.5-.31-.75A99.7,99.7,0,0,0,138.05,223h0c-4.57-6.58-4.54-16.45,0-24.4C119.83,182.46,95.66,171.49,66.2,166a187.19,187.19,0,0,0-56.9,2.27c-37.75,7.79-61.64,27.34-71.08,58.12,16.2-9.67,36.6-14.1,56.64-12.2a155.6,155.6,0,0,1,50,13c13,5.94,24.19,15.21,35,24.16L84.23,255q2,1.65,4.06,3.29l1.77,1.41c1.11.88,1.62,1.29,1.77,1.76,1.41,1,3,2,4.58,2.88.83.49,1.63.95,2.33,1.4,1.51.95,3.1,1.86,4.87,2.79l1.31.66,1,.48a19,19,0,0,1,1.92.61l2.29.81a45.56,45.56,0,0,0,5.25,1.68,13.44,13.44,0,0,0,1.56.23,14.4,14.4,0,0,1,2.71.5h.16c1.51.09,3,.12,4.39.09.34,0,1.45-.1,2.35-.17l.85-.07C128,273.23,128.61,273.12,128.86,273.06Z"/><path class="cls-6" d="M-275.43,947.35a3,3,0,0,1-.72-2.36l4.44-35.54c-17.37-18.62-12.13-46.44-11.39-49.92.55-27.18,10.39-47.51,29.24-60.43,25-17.15,65-21.13,118.81-11.83a482.64,482.64,0,0,1,71.94,18.55C8.5,771.91,47.45,720,47.83,719.5a19.57,19.57,0,0,0,3.39-16.56c-6.45-30-66.53-64.18-67.13-64.53a1.78,1.78,0,0,1-.27-.17c-31.46-22.47-25.38-57.91-24.39-62.69-2.09-24,3.23-43.19,15.81-57,18.08-19.8,45-21.84,50.81-22.05,3.31-2.85,5.21-6.82,5.79-12.1,5-45-86.92-155.15-87.85-156.26l-.08-.1c-23.64-30.74-12.6-92.18-12.1-94.87,7.82-36.18,33.78-60,75.06-69a187.93,187.93,0,0,1,60-2.64l.13,0c52.32,9.74,79.08,34.95,92.31,54.39S175.17,252.56,175.6,256c22.5,43.11,66.88,86.53,131.93,129.07C360,419.4,425.82,453.16,503.26,485.44c132,55,253.44,87.08,254.65,87.39l.4.14c52.38,21.92,73.33,58,81.69,84.45,8.13,25.7,6.29,47,5.72,51.77,20.44,39.23,89.28,55.21,90,55.36a3,3,0,0,1,2.33,2.74l11.44,177.88a3,3,0,0,1-3,3.19H-273.18A3,3,0,0,1-275.43,947.35ZM932.18,769.88c-12.52-3.14-72.87-20.09-92.23-58.81a3,3,0,0,1-.29-1.79c0-.22,3.26-22.95-5.46-50.3-11.63-36.49-37.87-63.54-78-80.4C750.42,577.06,630.79,545.11,501,491c-77.8-32.43-144-66.36-196.75-100.86C238.09,346.87,192.92,302.52,170,258.32a2.85,2.85,0,0,1-.32-1.1c0-.18-1.9-18.2-15.56-38.14-22.82-33.3-60.55-46.43-88.2-51.59-1.42-.19-28.7-3.74-57.8,2.57-39.37,8.54-63.08,30.21-70.45,64.32-.12.61-11,61.35,10.94,90,4.43,5.3,94.41,113.37,89.18,160.72C37,492.36,34,498,29,501.88a3,3,0,0,1-1.82.62c-.29,0-29.4.29-47.51,20.16C-31.82,535.24-36.6,553-34.55,575.47a3,3,0,0,1-.08,1c-.35,1.43-8.28,35.21,21.81,56.81,4.12,2.34,63,36.26,69.91,68.4a25.68,25.68,0,0,1-4.43,21.39c-.4.54-40.58,54.14-114.34,88.72a3,3,0,0,1-2.3.1c-1.29-.47-129.79-46.74-186.49-7.83-17.23,11.81-26.19,30.62-26.64,55.89a3.18,3.18,0,0,1-.07.62c-.07.28-6.31,28.66,10.75,45.72a3,3,0,0,1,.85,2.49l-4.2,33.59H943.28Z"/><path class="cls-4" d="M366.94,833s-30-70.44-66.25-74.07c0,0-14.5-7.25-5.44,19.94,0,0,12.69,49.95-34.44,6.85,0,0-67.07-113.79-112.38-106.54,0,0-18.13,5.44,0,25.38,0,0-14.5,19.94,23.56,30.81,0,0,82.21,41.35,77.36,70.52,0,0-1.48,13.34,7.5,22,6.75,6.52,17.35,6.48,24.55.45,3.7-3.1,8.94-6,15.25-5.54a50.28,50.28,0,0,0,21-3.12c9.73-3.56,22.47-3.29,24.71,20.81C342.31,840.47,380.62,878,366.94,833Z"/><path class="cls-6" d="M351.47,850.29a108.25,108.25,0,0,1-10.26-8.7,1.53,1.53,0,0,1-.46-1c-.92-9.89-3.7-16.37-8.27-19.26-3.63-2.3-8.46-2.37-14.34-.22a51.3,51.3,0,0,1-21.61,3.21c-4.83-.36-9.59,1.38-14.13,5.18a19.88,19.88,0,0,1-26.64-.52c-9.43-9.1-8-22.73-8-23.31,0,0,0-.05,0-.08,1.88-11.29-10.64-26.73-36.19-44.64a368.59,368.59,0,0,0-40.19-24.16c-14.81-4.25-23.69-10.42-26.41-18.32a17,17,0,0,1,1.47-13.8c-6.27-7.16-8.72-13.41-7.28-18.59,1.74-6.28,8.49-8.37,8.78-8.45l.2,0c19.39-3.1,44.5,14.09,74.65,51.11a518.18,518.18,0,0,1,39.21,56c19.66,17.93,27.14,17.9,29.85,16.27,5.22-3.12,3.12-16.65,1.85-21.68-3.82-11.5-4-18.51-.64-21.45,2.83-2.46,6.9-.94,8-.46,36.63,4,66,72.08,67.27,75l.06.16c4.08,13.43,4,20.86-.12,23.38a5.93,5.93,0,0,1-3.16.82C361.81,856.71,357.29,854.59,351.47,850.29Zm-5.37-52.13c-10.79-16.19-27.45-35.88-45.57-37.69a1.76,1.76,0,0,1-.54-.16s-3.22-1.52-4.84-.11c-1,.91-3,4.49,1.59,18.15l0,.11a60.17,60.17,0,0,1,1.54,10.37c.42,7.68-1.2,12.67-4.8,14.82-6.26,3.75-17.3-1.75-33.76-16.8a2,2,0,0,1-.29-.36c-.66-1.13-66.91-112.58-110.67-105.81-.69.23-5.37,2-6.57,6.26s1.38,9.94,7.37,16.53a1.57,1.57,0,0,1,.11,2s-4,5.55-1.73,12c2.35,6.8,10.8,12.46,24.45,16.36a1.36,1.36,0,0,1,.28.11,372.72,372.72,0,0,1,40.69,24.44c27,18.91,39.59,35,37.51,47.69-.06.74-1.05,12.87,7,20.67a16.76,16.76,0,0,0,22.45.38c5.11-4.29,10.77-6.33,16.38-5.91a48.36,48.36,0,0,0,20.29-3c6.85-2.51,12.6-2.34,17.1.5,5.33,3.38,8.58,10.46,9.65,21,7.36,7.11,19.06,15.79,22.88,13.47,1.21-.73,3.49-4.11-1.23-19.7A247.9,247.9,0,0,0,346.1,798.16Z"/><path class="cls-8" d="M311.13,13.83S247.6,21.91,203.71,112C203.71,112,243,24.22,311.13,13.83Z"/><path class="cls-9" d="M206.17,558.14s1.12,132.59-55.06,185.4c0,0-111.23,50.56-158.43,58.42V943.54l892.14-22.48S806.17,832.3,750,818.82c0,0-41.58-13.49-88.77-9,0,0-106.74-20.23-136-43.82l-309-228.09S202.8,524.43,206.17,558.14Z"/><path class="cls-10" d="M601.07,839.29c10.44,29,19.34,58.45,27.13,88.24l256.62-6.47S806.17,832.3,750,818.82c0,0-41.58-13.49-88.77-9,0,0-41.25-7.82-79.49-19.41Q592.2,814.54,601.07,839.29Z"/><path class="cls-11" d="M356,660.41a96.84,96.84,0,0,0,2.51,10.88c.5,1.72,1.07,3.43,1.67,5.13-.07-.29.27.49,1.41,3.64a119.28,119.28,0,0,0,7.2,13c1.36,2.13,2.79,4.21,4.26,6.26.24.31.51.68.84,1.12l.35.44c3.41,4.14,7,8.11,10.82,11.91s8,7.64,12.19,11.21c1.91,1.63,3.86,3.2,5.82,4.77.94.7,1.88,1.4,2.83,2.09a318.41,318.41,0,0,0,29.65,19c10.44,6,21.16,11.43,32.06,16.52,5.25,2.45,10.55,4.79,15.87,7.09L487,775q4,1.62,8,3.18c20.49,8,41.37,15,62.45,21.33,8.79,2.62,17.66,4.93,26.45,7.51,18.31,5.37,36.76,9.09,55.44,12.88,18.42,3.74,36.36,9.07,54.45,14.08,18.56,5.14,37.13,11.38,53.52,21.69a183.26,183.26,0,0,1,60.29,61.5c1.15,1.91,2.26,3.84,3.35,5.78l73.86-1.86S806.17,832.3,750,818.82c0,0-41.58-13.49-88.77-9,0,0-106.74-20.23-136-43.82L356,641.08A104.89,104.89,0,0,0,356,660.41Z"/><path class="cls-10" d="M6.27,837.93a208.89,208.89,0,0,0,34,9.17c1.13.2,2.29.32,3.42.51l.62.07c2.5.26,5,.44,7.53.52s5.13.06,7.69-.08c1-.06,2-.16,3-.24,2.13-.41,4.24-.81,6.33-1.41.87-.25,1.73-.53,2.59-.83l.23-.13c1.61-1,3.51-1.66,5.08-2.67.3-.19.94-.65,1.41-1l.22-.2a73,73,0,0,0,6.14-6c.48-.53,3-2.9,3-3.6,0-.06-2.15,2.94-1,1.26.48-.68,1-1.33,1.48-2a152.16,152.16,0,0,0,10.44-17c3.39-6.28,6.45-12.74,9.31-19.28.29-.68.53-1.22.65-1.5l.63-1.52q1-2.34,1.89-4.7,1.83-4.65,3.57-9.36c2.64-7.14,5.09-14.34,7.43-21.58C85.65,771.86,24.56,796.65-7.32,802V832.8Q-.57,835.5,6.27,837.93Z"/><path class="cls-10" d="M164.49,739.77l.69.58.13.1c1.08.8,2.16,1.61,3.26,2.4a151.27,151.27,0,0,0,14.78,9.34q3.42,1.9,7,3.61c1.4.69,2.82,1.33,4.23,2l.49.22.18.07c5.09,1.88,10.13,3.75,15.37,5.2a162.47,162.47,0,0,0,16.64,3.55l.35,0,.23,0c1.3.11,2.59.29,3.89.4.77.07,1.56.12,2.34.18a69.27,69.27,0,0,1-11.89-28.86c-1.8-11.47,4.66-22.91,17.5-23,32.7-.14,65.07-7.06,97.74-6.71-1.91-20.67-.83-41.33,2.09-62,.75-5.33,1.67-10.69,2.76-16l-125.94-93s-13.48-13.49-10.11,20.22c0,0,1,119.75-47.12,177C160.84,736.68,162.66,738.23,164.49,739.77Z"/><path class="cls-12" d="M206.42,558.13c0,8.28-.36,16.5-.88,24.74s-1.26,16.44-2.2,24.63-2.09,16.37-3.44,24.5-3,16.23-4.89,24.27-4.12,16-6.65,23.84a210.15,210.15,0,0,1-8.87,23.14c-1.65,3.8-3.58,7.46-5.48,11.15l-3.08,5.39c-.49.91-1.07,1.78-1.63,2.65l-1.69,2.61a114.54,114.54,0,0,1-15.79,19.24l-.12.11-.16.08c-12.83,5.88-25.73,11.56-38.69,17.14s-26,11-39.12,16.18S47.4,788,34,792.6,7.14,801.43-7,804l1.73-2,.17,70.79,0,70.79-2.26-2.21,55.76-1.25L104.16,939l111.53-2.24q111.53-2.19,223-5.27l55.76-1.5,55.75-1.64L661.74,925l111.51-3.23,111.51-3.07L883,922.64c-9.49-10.48-19.5-20.64-29.72-30.48s-20.81-19.34-31.75-28.37q-8.24-6.74-16.75-13.07c-5.71-4.17-11.53-8.18-17.5-12a186.25,186.25,0,0,0-18.44-10.18,102,102,0,0,0-19.51-7.19h-.08l-.12,0a213.52,213.52,0,0,0-21.48-5.2q-10.89-2.1-22-3.23c-3.67-.43-7.37-.63-11.05-.92-3.7-.13-7.39-.4-11.08-.36a220.46,220.46,0,0,0-22.12.85l-.42,0-.33-.07c-21.67-4.3-43.12-9.3-64.41-15.15-10.64-2.94-21.22-6.12-31.67-9.75a208.82,208.82,0,0,1-30.72-13l-3.66-2.12c-1.19-.78-2.4-1.54-3.58-2.33l-6.71-5-13.23-9.83-26.44-19.71L427.49,696,321.91,617l-52.84-39.48-53-39.32h0l0,0a11.12,11.12,0,0,0-3.13-2.13,4,4,0,0,0-3.53-.07,5.33,5.33,0,0,0-2.2,2.89,17,17,0,0,0-.93,3.73,49.15,49.15,0,0,0-.36,7.77C206,552.92,206.19,555.52,206.42,558.13Zm-.5,0c-.24-2.59-.47-5.2-.53-7.82a49.2,49.2,0,0,1,.35-7.86,17.83,17.83,0,0,1,.94-3.86,5.93,5.93,0,0,1,2.46-3.19,4.53,4.53,0,0,1,4,0,11.63,11.63,0,0,1,3.32,2.24l0,0,53.18,39,53.3,38.88,106.7,77.62L483,732.07l26.63,19.47,13.3,9.75,6.55,4.82c1.1.73,2.23,1.43,3.34,2.15l3.49,2A156.13,156.13,0,0,0,551,777.06c5,2.08,10.15,3.93,15.3,5.72,10.33,3.55,20.83,6.67,31.39,9.56,21.14,5.74,42.56,10.67,64,14.86l-.75,0a220.44,220.44,0,0,1,22.69-.88c3.78,0,7.56.24,11.33.37,3.77.3,7.55.51,11.3,1q11.26,1.15,22.41,3.31a214.87,214.87,0,0,1,22.11,5.37l-.2-.06a105.35,105.35,0,0,1,20.55,7.58,191.86,191.86,0,0,1,18.94,10.54c6.08,3.87,12,8,17.78,12.23s11.38,8.75,16.91,13.31c11,9.16,21.65,18.78,31.93,28.73S877,908.8,886.6,919.49l3.44,3.83-5.16.12L773.36,926l-111.53,2.4L550.3,930.67l-55.77,1.17-55.76,1.31q-111.52,2.52-223,6l-111.5,3.39-55.76,1.68-55.75,1.56-2.27.07v-2.27l0-70.79L-9.39,802v-1.74l1.72-.3C6,797.55,19.51,793.4,32.84,789s26.59-9.15,39.73-14.2,26.24-10.24,39.25-15.63,26-10.9,38.86-16.6l-.28.19a112.9,112.9,0,0,0,15.76-18.7l1.69-2.56c.57-.85,1.15-1.7,1.65-2.59l3.12-5.3c1.92-3.62,3.89-7.23,5.57-11a213,213,0,0,0,9.12-22.89q3.93-11.7,6.82-23.72a397.87,397.87,0,0,0,8.61-48.61q1.44-12.29,2.25-24.61C205.52,574.62,205.9,566.36,205.92,558.16Z"/><path class="cls-13" d="M294.93,741.29S336.5,770.5,393.81,766l7.15-.26L417.4,775S343.25,776.12,294.93,741.29Z"/><path class="cls-13" d="M468,793s-31.46,47.19-77.52,70.79c0,0,62.92-40.45,94.38-70.79Z"/><path class="cls-13" d="M452.23,791.85S360.1,839,312.91,836.79c0,0,53.93-2.24,123.59-52.8Z"/><path class="cls-11" d="M562.53,796.1s20.54,129.43,26.7,137.9L545,867.48l-24-85.65,10.94-10Z"/><path class="cls-14" d="M137.1,751.54S22.42,803.89-5.12,804.29L-1.86,817S91.78,782.3,137.1,751.54Z"/><path class="cls-12" d="M498.3,788.48s28.56,120.11,27.79,130.12v16.17h67.76S567.67,894,566.9,887L520.7,778.45Z"/><path class="cls-15" d="M349.36,761.13l40.43,1.15,24.26,10.4S365.53,764.59,349.36,761.13Z"/><path class="cls-8" d="M193.43,517.41S121,611.35,93.32,633.68c0,0,23.1-17.71,43.12-33.11,0,0,11.55-6.16,20-6.16,0,0-35.42,27-41.58,40.81,0,0,8.47-9.24,27.72-10,0,0,15.4,7.7,33.12-9.24,0,0,3.85-10,11.55-13.86,0,0,7.7,23.87,1.54,40.81a250.94,250.94,0,0,0,5.39-42.35s-2.31,33.11,2.31,38.5c0,0,.25-15.14,5.64-22.84,0,0,7.45-40.3,5.91-73.41C208.06,542.82,209.6,497.38,193.43,517.41Z"/><path class="cls-16" d="M625,182.43s46.2,85.48,41.58,144.39c0,0,1.16,37,1.16,45.05,0,0-1.16,41.58-15,61.22,0,0-5.77,20.79-4.62,30,0,0,6.93,55.44-11.55,100.49-5.41,14.29-11.71,28.29-18.41,42-12.31,25.24-29.53,46.89-44.44,70.33-5.26,8.28-8.56,18.84-12.32,27.87-3.85,9.25-7.87,18.67-10.3,28.42,0,0-18.48,47.36-40.43,54.29,0,0-57.76,24.26-109.73-20.79,0,0-144.39-78.55-174.42-154.78,0,0-23.1-72.77-26.57-87.79,0,0-1.92-5-6.54-5.77,0,0-48.52-25.42-60.84-66.23,0,0-5.39-13.09-10-23.1,0,0-2.31-5.39-2.31-16.17a79.23,79.23,0,0,0-6.93-21.56s-10.78-17.71-6.93-38.51c0,0,1.54-30.8,21.56-31.57,0,0,26.95-3.85,42.36,32.34l26.95,27,21.56-169.41,171-81.63S583.84,105.43,625,182.43Z"/><path class="cls-17" d="M171.54,502.78c2.71-4.43,5.24-9,7.54-13.62.91-1.86,1.75-3.74,2.63-5.62.15-.39.31-.77.46-1.16q2.18-5.64,3.92-11.43a158.71,158.71,0,0,0,4.62-20.17,178.93,178.93,0,0,0-.18-39.53,234.44,234.44,0,0,0-9.37-38q-1.82-5.42-3.86-10.76-.88-2.31-1.8-4.62a.61.61,0,0,1-.05-.12l-5.12-5.13C154.92,316.42,128,320.27,128,320.27c-20,.77-21.56,31.57-21.56,31.57-3.85,20.8,6.93,38.51,6.93,38.51a79.23,79.23,0,0,1,6.93,21.56c0,10.78,2.31,16.17,2.31,16.17,4.62,10,10,23.1,10,23.1C139.35,473.56,157,491.31,171.54,502.78Z"/><path class="cls-18" d="M360.54,445.61c1.49,6.68,16.24,72.42,32.71,124.21,10.5,33,54.48,39.41,74,10.8,13.87-20.29,27.92-44.12,36.09-67a9.18,9.18,0,0,1,.62-1.4c1.37-2.53,6.45-12.65,6.5-24.17a10.44,10.44,0,0,0-10.07-10.52c-22.52-.74-84-6-117.65-40.89a10.32,10.32,0,0,0-2.64-2c-5.32-2.83-22-10.21-19.78,9.87A10.91,10.91,0,0,0,360.54,445.61Z"/><path class="cls-19" d="M668.63,378.06s-37.09.56-60.22,13.76c0,0-45.73,48.1-33.4,88.15,0,0,8.52-.53,9.24.51,8.66-2.71,8.11-2.19,17.07-3.62,13.26-5.07,46.27-22.06,60.23-69.18C661.55,407.68,670.36,392.69,668.63,378.06Z"/><path class="cls-14" d="M477.82,667.59s-26.77,2.51-33.47,0c0,0-15.06,3.35-10,8.37,0,0,11.72-4.19,16.74-1.68C451.05,674.28,478.66,674.28,477.82,667.59Z"/><path class="cls-14" d="M446.45,673c16.86-3.62,34.22-7.64,49.19-16.55,11.1-6.6,29.08-11.48,41.17-4.37,4.93,2.9,11.35-1.81,16.09-3.05,2.8-.73,4.26-.92,6.76.53,2.67,1.55,2.94,5.77,4.76,7,0,0-7.53-5-18.41,1.12,0,0-14.22,1.11-22.59-3.07,0,0-13.38,1.67-24.26,7.53C499.16,662.15,468.2,676.37,446.45,673Z"/><path class="cls-20" d="M433.79,682.43s21.41,30.62,50.06,46.39c0,0,28.08,3.67,39.07-1.22,0,0-50.06,6.11-69.59-44C453.33,683.65,442.34,671.44,433.79,682.43Z"/><path class="cls-21" d="M440,673.31s29.57-1.12,48.53-8.93c0,0,30-14.5,42.81-8.92,0,0,3.77.41,13,2.09,0,0,15.06-7.11,20.08-1,0,0,6.7,16.74-8.92,22.31,0,0-22.32,7.81-30.12,7.26,0,0-41.28-6.7-47.42-6.7C478,679.44,447.84,675,440,673.31Z"/><path class="cls-22" d="M561.08,675.54S559.4,709,540.16,720.72c0,0-9.39,5.4-17.24,6.88,0,0-33,6.51-58.9-25.29,0,0-13.67-18.68-24-29,0,0,87.86,18.68,94.83,15.06C534.86,688.37,547.69,686.41,561.08,675.54Z"/><path class="cls-23" d="M559.49,676.78C552,706.22,520,720.57,491.33,716.72a90.16,90.16,0,0,1-17.19-4.07c23.64,19.91,48.78,15,48.78,15,7.85-1.48,17.24-6.88,17.24-6.88,19.24-11.71,20.92-45.18,20.92-45.18C560.55,676,560,676.38,559.49,676.78Z"/><path class="cls-14" d="M459.75,681.08a37.21,37.21,0,0,0-.38,11.55s3-9.52,7.18-11.2S459.75,681.08,459.75,681.08Z"/><path class="cls-14" d="M481.7,687.24s-11.17,8.08-10.4,19.25C471.3,706.49,478.62,693.4,481.7,687.24Z"/><path class="cls-14" d="M475.75,685.62s-10,12.55-10.88,15.89C464.87,701.51,459.85,689.8,475.75,685.62Z"/><path class="cls-24" d="M444.77,675.54s66.1,29.28,80.33,25.93c0,0,13.38.42,26.77-12.55,0,0,8.37-10,11.72-14.22,0,0-13.39,7.11-20.92,10.46,0,0-12.13,5-36.82-1.26C505.85,683.9,484.52,679.3,444.77,675.54Z"/><path class="cls-25" d="M455.09,672.19a187.46,187.46,0,0,0,21.66-4.36c3.56-.91,7.08-2,10.57-3.13s6.93-2.46,10.29-3.94c.84-.37,1.7-.71,2.53-1.1l2.48-1.21,1.24-.6c.46-.21.88-.37,1.32-.54.87-.33,1.75-.63,2.64-.91a57.06,57.06,0,0,1,10.91-2.29,42.59,42.59,0,0,1,21.9,3.14l-.09,0a12.55,12.55,0,0,0,2.76.15,17.44,17.44,0,0,0,2.79-.35,19.56,19.56,0,0,0,2.71-.79,20.62,20.62,0,0,0,2.59-1.15h0a22.51,22.51,0,0,1,3.37-1,16.39,16.39,0,0,1,3.5-.39,10,10,0,0,1,3.5.6,7.21,7.21,0,0,1,2.87,2.13l0,0v0a19.86,19.86,0,0,1,1.6,5.06,17.32,17.32,0,0,1,.12,5.28,12.38,12.38,0,0,1-1.77,4.94,14.29,14.29,0,0,1-3.56,3.83,14.64,14.64,0,0,0,3.39-3.93,12.07,12.07,0,0,0,1.6-4.88,17.12,17.12,0,0,0-.27-5.15,20.72,20.72,0,0,0-1.65-4.87l0,0a6.41,6.41,0,0,0-2.63-1.88,9,9,0,0,0-3.26-.49,14.55,14.55,0,0,0-3.33.43,20.59,20.59,0,0,0-3.2,1l0,0a23.33,23.33,0,0,1-2.68,1.25,19.39,19.39,0,0,1-2.84.85,18.07,18.07,0,0,1-2.94.39,13.35,13.35,0,0,1-3-.16h0l0,0a42,42,0,0,0-21.4-3,56,56,0,0,0-10.72,2.19c-.87.27-1.74.56-2.59.88-.42.15-.86.32-1.24.49l-1.25.6-2.5,1.2c-.84.39-1.7.73-2.55,1.1a134,134,0,0,1-21.09,6.8q-5.38,1.32-10.85,2.24C462.42,671.3,458.77,671.86,455.09,672.19Z"/><path class="cls-14" d="M491.63,694.78s-11.16,12.78-7,20.31A121.54,121.54,0,0,0,491.63,694.78Z"/><path class="cls-24" d="M490.37,680.42a67.35,67.35,0,0,0,13.39-17.57s-2.51,13.38-6.69,19.24C497.07,682.09,486.19,683.76,490.37,680.42Z"/><path class="cls-26" d="M507.25,682.51s6.69-3.35,10.87-.84c0,0,13.39,5.86,23.43,0C541.55,681.67,527.33,695.9,507.25,682.51Z"/><path class="cls-24" d="M508.6,668.81c6-4.31,12.45.24,18.92.86,9,.87,15.72-4.7,24.46-5.12,3.15-.16,9.77,2.56,10.39,6.54.88,5.65-6.26,7.38-10.53,9.26-7.75,3.4-18,9.76-26.77,7.6,0,0-18-.63-24.27-3.35s2.38-11.05,6.78-15A10.47,10.47,0,0,1,508.6,668.81Z"/><path class="cls-25" d="M434.42,671.77s12.86-.14,17.88,2.09c0,0,66.32,10.48,75,11.45,0,0,23.22-2.52,33.82-9.77-.65.44-2.1,4.06-3.09,5-5.64,5.4-14.57,7.41-21.93,7.92-23.36,1.61-44.48-3.34-67-8.89C469,679.58,429.4,674,434.42,671.77Z"/><path class="cls-14" d="M561.5,675.28a66.81,66.81,0,0,1-1.65,13.5c-1,4.45-2,9.49-3.82,13.67s-4.71,7.41-7.71,10.87a39.43,39.43,0,0,1-4.93,4.74,34.87,34.87,0,0,1-5.74,3.66,40.62,40.62,0,0,0,10-8.94,53.72,53.72,0,0,0,3.84-5.51,58,58,0,0,0,3.1-6A75.67,75.67,0,0,0,559,688.59c.58-2.18,1.06-4.38,1.46-6.6S561.25,677.53,561.5,675.28Z"/><path class="cls-27" d="M117.08,375.75s-4.62-32.34,10.78-40c0,0,9.24-10.78,24.64,4.62,0,0-18.48-21.56-32.34-16.94C120.16,323.39,101.68,341.87,117.08,375.75Z"/><path class="cls-28" d="M572.34,457.35s-121.72,107-84.75,145.53c0,0,16.42,8.22,31.31,5.65,0,0,2.57-2.57,19.51,3.59,0,0,41.58,15.4,57-23.1C595.39,589,597,552.08,572.34,457.35Z"/><path class="cls-11" d="M668.93,368.4c0-8.08-1.15-45-1.15-45C672.4,264.44,626.2,179,626.2,179c-9.39-17.54-26.7-29.88-47.84-38.49,8.2,15.66,15.27,31.94,21.87,48.33,7.15,17.76,13.44,36,17.59,54.71,4.5,20.34,7,41.48,2.57,62.06a62.42,62.42,0,0,1-10.59,23.81,17.87,17.87,0,0,1,.68,6.67c-3,26.58-10.85,51-22.94,74.87-2.46,4.87-5.09,9.66-7.83,14.37,6.31,14.58,10,30.52,13.09,45.87,4.56,22.84,8.09,46.48,8,69.82,0,9.9-.74,20.36-3.73,29.83-4.39,13.93-12.33,25.11-21.48,36.27-3.44,4.21-7.07,8.26-10.63,12.36-1.81,2.09-3.62,4.19-5.38,6.33-.21.26-.44.52-.68.79l-.87,1.16a103.29,103.29,0,0,0-8,13.33c-.37,1.13-.76,2.25-1.08,3.39-.1.33-.18.66-.26,1,.64,1.9,1.38,3.77,2.08,5.67A58,58,0,0,1,553.92,667c.89,11.84-4,26-13.27,33.75a55.53,55.53,0,0,1-11.85,7.85c-1.4.68-2.82,1.31-4.21,2-.17.09-.38.21-.62.36-.36.51-.72,1-1.05,1.55-.64,1-1.25,2.07-1.87,3.11q7.38-3.57,14.69-7.29c10.09-5.15,20.06-10.51,30-16,2.64-6.88,5.4-14,9.18-19.92,14.91-23.44,32.12-45.08,44.44-70.33,6.69-13.72,13-27.73,18.41-42,18.48-45,11.55-100.49,11.55-100.49-1.16-9.24,4.62-30,4.62-30C667.78,410,668.93,368.4,668.93,368.4Z"/><path d="M625.26,182.32c5.91,11.2,11.25,22.69,16.22,34.34q3.72,8.75,7.08,17.63t6.36,17.9c2,6,3.81,12.08,5.42,18.21s3.07,12.31,4.23,18.54a151.74,151.74,0,0,1,2.87,37.94v-.09l.89,27.21.45,13.61.11,3.4,0,.85,0,.89-.08,1.71c-.1,2.28-.26,4.55-.45,6.82a186.7,186.7,0,0,1-4.09,27.06c-2.08,8.9-5,17.77-10.2,25.67l.23-.5a166.26,166.26,0,0,0-4,19.52,44.17,44.17,0,0,0-.41,9.61c.4,3.37.68,6.76.92,10.13q.64,10.14.49,20.3c0,3.38-.18,6.76-.3,10.15-.07,1.69-.22,3.38-.33,5.07s-.2,3.38-.39,5.06a194.73,194.73,0,0,1-7.73,39.95l-.74,2.45-.88,2.39-1.77,4.79c-.59,1.62-1.18,3.15-1.78,4.73l-1.86,4.71c-2.51,6.27-5.19,12.47-8,18.61s-5.66,12.22-8.72,18.28-6.42,12-10,17.72c-7.07,11.55-14.86,22.55-22.44,33.62-3.79,5.53-7.55,11.1-11.14,16.71s-6,11.64-8.41,17.86c-1.23,3.12-2.44,6.27-3.76,9.41s-2.63,6.18-3.88,9.27a146.36,146.36,0,0,0-6.49,18.82l0,.12,0,.08c-2.23,5.44-4.7,10.68-7.37,15.86a168.8,168.8,0,0,1-8.76,15.13,96.48,96.48,0,0,1-10.79,13.87,51.37,51.37,0,0,1-6.67,5.89,28.24,28.24,0,0,1-8,4.19l.11,0a89.7,89.7,0,0,1-14.32,4,114.69,114.69,0,0,1-14.65,2,112.34,112.34,0,0,1-29.46-1.63,108.07,108.07,0,0,1-27.93-9.4,121,121,0,0,1-24.41-16.45l.14.1c-12-6.67-23.68-13.79-35.24-21.14s-23-15-34.11-22.9c-22.29-15.91-43.82-33-63.31-52.35-4.89-4.81-9.59-9.82-14.14-15-2.27-2.58-4.42-5.26-6.64-7.89L244,643.12c-1-1.38-2.13-2.7-3.08-4.14-1.93-2.86-4-5.61-5.74-8.59L232.47,626,230,621.41l-1.22-2.29c-.42-.76-.73-1.58-1.09-2.37L225.6,612l-.27-.6-.2-.64-.4-1.23-.79-2.44-1.56-4.89Q216.13,582.62,210,563l-6-19.63c-2-6.57-4-13.09-5.66-19.84l.07.24a9.92,9.92,0,0,0-.91-1.62,9.12,9.12,0,0,0-1.24-1.44,6.2,6.2,0,0,0-1.45-1,5.46,5.46,0,0,0-1.61-.54l-.34-.08-.2-.11a166.26,166.26,0,0,1-37.1-27.9A118.59,118.59,0,0,1,140.7,473a96.15,96.15,0,0,1-5.82-10.22,84.44,84.44,0,0,1-4.33-11l.07.2c-2.67-6.37-5.41-12.74-8.24-19l-1.08-2.35-.55-1.19-.13-.3-.07-.15-.1-.25-.26-.71a36.63,36.63,0,0,1-1.31-5.38,63.66,63.66,0,0,1-.88-10.73l0,.32c-.28-1.71-.68-3.57-1.12-5.34s-1-3.56-1.51-5.31-1.19-3.49-1.88-5.19-1.45-3.37-2.25-5l.1.17a50.8,50.8,0,0,1-2.39-4.7c-.36-.79-.68-1.58-1-2.38l-.92-2.41a65.64,65.64,0,0,1-2.72-9.95c-.36-1.69-.55-3.41-.79-5.12l-.19-2.6c0-.43-.07-.86-.09-1.29v-1.3a55.8,55.8,0,0,1,.82-10.39l0,.32a61.94,61.94,0,0,1,1.73-10.79,46.74,46.74,0,0,1,3.82-10.32,26.22,26.22,0,0,1,7.22-8.88,20.36,20.36,0,0,1,5.25-2.85,22.55,22.55,0,0,1,5.84-1.09l-.26,0c.43-.05.74-.07,1.08-.09s.67,0,1,0c.66,0,1.3,0,1.94,0a17.35,17.35,0,0,1,1.92.14c.63.08,1.27.11,1.89.23a36.31,36.31,0,0,1,3.73.78l1.83.49,1.79.64a44.27,44.27,0,0,1,13,7.57l2.78,2.52c.92.84,1.69,1.82,2.54,2.73a57.35,57.35,0,0,1,4.58,5.86l.54.75.48.79.94,1.59,1.89,3.17,3.18,6.62-.55-.81,27,26.9-4.52,1.54,10.76-84.71,10.91-84.69.18-1.38,1.25-.6,85.6-40.55,85.76-40.22.25-.13.25,0c10.53-1.08,21-1.73,31.56-2.19s21.06-.65,31.59-.59a495.21,495.21,0,0,1,63,4.14c20.83,2.92,41.64,7.19,61.18,15.17a121.07,121.07,0,0,1,27.59,15.26A72.81,72.81,0,0,1,625.26,182.32Zm-.44.23a72.37,72.37,0,0,0-20.65-23.35,119.15,119.15,0,0,0-27.5-15.06q-7.3-2.91-14.85-5.18t-15.22-4a298.41,298.41,0,0,0-31-5.31,494,494,0,0,0-62.84-3.23c-10.49.08-21,.45-31.45,1s-20.95,1.45-31.32,2.67l.5-.15-85.19,41.4-85.35,41.08,1.43-2L210.71,295.2l-10.8,84.7-.68,5.39-3.83-3.84-26.9-27-.32-.31-.24-.5L165,347.41l-1.74-3-.87-1.48-.43-.74-.5-.68a54.52,54.52,0,0,0-4.16-5.37c-.77-.82-1.46-1.72-2.29-2.48l-2.48-2.27a39.17,39.17,0,0,0-11.44-6.74l-1.56-.56-1.6-.43a29.65,29.65,0,0,0-3.24-.7c-.54-.11-1.09-.13-1.63-.21a15.08,15.08,0,0,0-1.63-.12,14.69,14.69,0,0,0-1.62,0c-.26,0-.54,0-.79,0l-.69.05-.11,0h-.14a17.09,17.09,0,0,0-4.41.8,15,15,0,0,0-3.92,2.11,21.41,21.41,0,0,0-5.86,7.22,42,42,0,0,0-3.45,9.25A57,57,0,0,0,108.8,352v.15l0,.17a50.65,50.65,0,0,0-.77,9.45v1.19c0,.4.05.8.07,1.19l.17,2.39c.22,1.57.38,3.16.71,4.73a60.86,60.86,0,0,0,2.49,9.26l.85,2.25c.31.74.61,1.48.93,2.21.65,1.44,1.38,2.93,2.11,4.19l.07.13,0,0c.85,1.77,1.68,3.55,2.38,5.37s1.38,3.65,2,5.5,1.12,3.73,1.58,5.62.86,3.76,1.18,5.79l0,.14v.18a61.13,61.13,0,0,0,.76,10,34.25,34.25,0,0,0,1.11,4.72l.19.52s0,.08,0,.06l.06.14.13.29.54,1.18,1.06,2.38c2.82,6.37,5.52,12.76,8.16,19.2l0,.08,0,.11a79.68,79.68,0,0,0,4,10.41,90.28,90.28,0,0,0,5.48,9.79,115.59,115.59,0,0,0,14.16,17.56,155.78,155.78,0,0,0,17,15,161.47,161.47,0,0,0,18.91,12.51l-.54-.18a9.25,9.25,0,0,1,2.68.92,10.06,10.06,0,0,1,2.22,1.62,12.54,12.54,0,0,1,1.71,2,12.73,12.73,0,0,1,1.27,2.35l0,.09,0,.15c1.58,6.54,3.52,13.14,5.4,19.69l5.83,19.66q5.92,19.65,12,39.25l1.52,4.9.76,2.44.38,1.22.18.58.25.58,2,4.62c.35.77.63,1.55,1,2.3l1.17,2.25,2.35,4.51,2.63,4.35c1.67,3,3.7,5.69,5.58,8.52.92,1.43,2,2.75,3,4.12l3.06,4.08c2.17,2.63,4.28,5.3,6.5,7.88,4.47,5.14,9.09,10.16,13.9,15,9.63,9.67,19.85,18.75,30.38,27.44s21.43,17,32.53,24.93A736.84,736.84,0,0,0,401.34,765l.08,0,.07.06a116.65,116.65,0,0,0,24.15,16.06,105.9,105.9,0,0,0,27.5,9,112.61,112.61,0,0,0,43.23-.87,88.14,88.14,0,0,0,13.8-4.06l.07,0,.05,0a25.22,25.22,0,0,0,7.21-3.88,48.67,48.67,0,0,0,6.23-5.63A92.56,92.56,0,0,0,534,762.2a167,167,0,0,0,8.43-14.94c2.56-5.11,5-10.36,7.06-15.63l-.07.2a152.17,152.17,0,0,1,6.42-19.34c1.24-3.14,2.53-6.25,3.8-9.36s2.43-6.21,3.62-9.36c2.41-6.28,4.89-12.68,8.56-18.64,3.6-5.74,7.35-11.33,11.12-16.9,7.54-11.14,15.19-22.16,22.14-33.56,3.48-5.7,6.77-11.49,9.76-17.43s5.84-12,8.62-18.11,5.41-12.24,7.93-18.43l1.85-4.66c.61-1.55,1.23-3.15,1.8-4.69l1.74-4.66.88-2.33.72-2.38a196.87,196.87,0,0,0,7.76-39c.21-1.66.29-3.32.44-5s.29-3.32.37-5c.15-3.33.36-6.65.39-10,.16-6.67.06-13.35-.3-20-.19-3.33-.41-6.65-.76-10a47,47,0,0,1,.57-10.48,169.49,169.49,0,0,1,4.34-19.9l.07-.25.17-.25c4.92-7.21,7.94-15.8,10.09-24.48A183.07,183.07,0,0,0,666,381.07c.22-2.24.41-4.49.54-6.74l.1-1.68,0-.82V371l-.07-3.39L666.31,354l-.5-27.17v-.09a149.9,149.9,0,0,0-2.33-37.61c-1.06-6.22-2.47-12.38-4-18.5s-3.33-12.19-5.26-18.21c-3.82-12.05-8.33-23.89-13.24-35.54S630.7,193.75,624.82,182.55Z"/><path class="cls-13" d="M499.39,542.82S469.62,568.49,465,579.27c0,0,11.81,28.75,33.88,28.23C498.88,607.5,458.33,599.8,499.39,542.82Z"/><path class="cls-25" d="M505,603.91a58.81,58.81,0,0,1,14.86-5.43c3.9-.73,7.83-.77,10.81.81,0,0,6.16,2.57,7.7,6.16,0,0-6.67-5.65-15.4-4.11C523,601.34,503,608,505,603.91Z"/><path class="cls-13" d="M534.82,609.56s22.59,11.8,38.5.51C573.32,610.07,551.24,630.6,534.82,609.56Z"/><path class="cls-14" d="M500.37,567.58c-4.7,7.49-14.71,25.78-2.52,28.63,0,0,9.7,1.32,20.93-18.1a11.32,11.32,0,0,0-.84-12.83c-2.1-2.55-5.37-4.42-10.33-3.12A12.34,12.34,0,0,0,500.37,567.58Z"/><path class="cls-8" d="M621.21,181.19s25.78,7.4,29.63,15.1c0,0,8.47,6.16,12.32,13.87,0,0-6.16-6.17-12.32-6.17,0,0-.77,18.49,5.39,20,0,0,10,41.58,6.93,50l-.77,11.55S643.92,216.61,621.21,181.19Z"/><path class="cls-14" d="M522.43,610.16a30.4,30.4,0,0,1,8,1.64l.44.06.78.14,2.52.21c-4-3.68-15.22-3.68-15.22-3.68A8.62,8.62,0,0,1,522.43,610.16Z"/><path class="cls-14" d="M534.2,612.21c2.59.2,5.17.35,7.76.49a83.57,83.57,0,0,1-7.66-9.56c-7.7-7.7-24.64,1.54-24.64,1.54C526.81,601.82,533.34,610.89,534.2,612.21Z"/><path class="cls-29" d="M499.39,542.82s-41.58,50-.51,64.68C498.88,607.5,451.91,598.26,499.39,542.82Z"/><path class="cls-25" d="M596.16,573.62s2.31,27-13.86,33.11C582.3,606.73,593.85,599.8,596.16,573.62Z"/><path class="cls-30" d="M270.43,324.12s117.82-117.81,144-124.75l3.85,125.52S285.06,364.17,270.43,355.7C270.43,355.7,248.1,349.53,270.43,324.12Z"/><path class="cls-31" d="M124.89,402.67S97.94,358,120.27,338c0,0,10.78-9.24,22.33.77,0,0-3.08,8.47-9.24,12.32,0,0-5.39,4.63-3.85,20C129.51,371.1,123.35,389.58,124.89,402.67Z"/><path class="cls-13" d="M168.79,387.27s4.62,33.11,9.24,30.8c0,0,10.78-5.39,5.39,11.55,0,0-3.08,7.7-7.7,10,0,0-3.08,8.47,5.39,15.4,0,0,10,13.09,7.7,19.25,0,0-15.4,10-24.64-1.54s-4.63-6.93-4.63-6.93-3.85-2.31,4.63-6.93c0,0,3.08-6.16-4.63-6.93,0,0-13.09.77-13.86-3.08,0,0-5.39-8.47-10.78-10,0,0-10.78-7.7-6.93-23.87,0,0,2.31-24.64,7.7-24.64,0,0,5.39,23.87,11.55,20.79,0,0,11.55-10,13.87-16.17C161.09,395,164.17,381.88,168.79,387.27Z"/><path class="cls-13" d="M142.6,338.75s-16.94,2.31-20,13.86c0,0,8.47,11.56,6.93,18.49,0,0-6.16,20.79-4.62,31.57,0,0-21.56-34.65-8.47-58.53C116.42,344.14,126.43,327.2,142.6,338.75Z"/><path class="cls-32" d="M173.41,398.82s-2.31,20.79,4.62,19.25c0,0,6.16-1.54,5.39-6.93C183.42,411.14,174.18,391.12,173.41,398.82Z"/><path class="cls-33" d="M183.42,429.62s-5.39,10-7.7,10c0,0-2.31,6.16,5.39,15.4,0,0,8.47,15.4,7.7,19.25,0,0,6.16-3.08,2.31-15.4,0,0-10-12.32-6.16-20C185,438.86,192.66,421.15,183.42,429.62Z"/><path class="cls-27" d="M564.21,482.75s29.26,95.49,12.7,120.13C576.91,602.88,618.14,607.47,564.21,482.75Z"/><path class="cls-9" d="M608.41,391.82s-39.65,44.54-34.76,70c0,0,6.86,28.39,15.67,32.8,0,0,17.62,11.25,36.22,7.83,0,0-29.37-9.79-33.78-24.48,0,0,33.78,8.81,46.5-4.89,0,0,11.75-35.24,10.77-40.14,0,0-24.47-12.72-52.37,2,0,0,34.75-43.07,56.78-48.95C653.44,385.94,615.75,385.45,608.41,391.82Z"/><path class="cls-34" d="M578.57,460.75s60.51-23.9,66.61-19.33c0,0-4.57,23.39-15.25,28.48,0,0-11.7,3.05-31.53-4.07C598.4,465.83,583.14,460.75,578.57,460.75Z"/><path class="cls-35" d="M590,457.25s-2.54,4.07-1,5.59l-9.66-2Z"/><path d="M624.25,443.12a12.63,12.63,0,0,1-.26,3.61,14.28,14.28,0,0,1-.42,1.53,4.78,4.78,0,0,1-.72,1.4c-.67.85-1.75,1.66-2.15,2.7a4.66,4.66,0,0,0-.32,1.61,7.21,7.21,0,0,0,.29,1.7c.13.56.38,1.11.5,1.65s.17,1.06.29,1.58.2,1,.26,1.56a8.88,8.88,0,0,1,.19,1.54,21.39,21.39,0,0,1-.24,3.23,20.61,20.61,0,0,1-.72,4.47l-.65-.73c-2.94,2.27-3.29-4-3.71-6.45a10.21,10.21,0,0,1-.1-1.83c0-.62.15-1.23.24-1.84a9.25,9.25,0,0,1,1.22-3.52,9.22,9.22,0,0,0,.78-1.66,6.13,6.13,0,0,0,.4-1.69c.13-1.15-.32-2.52-.19-3.78a4.24,4.24,0,0,1,.56-1.74,8.21,8.21,0,0,1,1-1.53,6.5,6.5,0,0,1,3.33-2.13Z"/><path class="cls-36" d="M622.16,446.76a70.19,70.19,0,0,0-3.54,18c0,2.14.34,5.31,2.47,5.47a40.31,40.31,0,0,0,8-.23,4.06,4.06,0,0,0,1.76-.69c2.52-1.74,9.65-7.86,13.4-23.45a4,4,0,0,0-4-5c-3.34.08-8.45.81-15.63,3.41A4,4,0,0,0,622.16,446.76Z"/><path class="cls-9" d="M584.67,449.56s28.48-21.36,37.63-22.38c0,0,23.39-4.57,28-3.05a5.48,5.48,0,0,1-2,4.07S626.37,420.57,584.67,449.56Z"/><path class="cls-14" d="M591.28,450.58s31-22.38,51.36-18.82C642.64,431.76,619.25,434.81,591.28,450.58Z"/><path d="M629.67,469.26c-5.95,2.73-42.43-6.79-52.33-9.06v0a5.62,5.62,0,0,1-.53.46c3.67,1.89,7.06,3.19,8.33,3.85.15.08,10.06,2.78,10.22,2.83,31.82,9.58,34.83,5.46,34.83,5.46C641.74,471,642.26,453,642.26,453,637.68,465.73,629.67,469.26,629.67,469.26Z"/><path d="M634,468.45s10,7.89,11.33,10.21c0,0-4.94-12-8.13-12.39Z"/><path d="M634.5,466.47s10.89,2.39,13.11,11.29C647.61,477.76,647.22,465.45,634.5,466.47Z"/><path d="M617.1,471.37s7.7,2.18,11.3,3.08c0,0,.46.39,1.14,1,1.78,1.68,5,5.1,5,7.7,0,0-.52-5.64-3.08-9.24l2.31-1s5.64,4.1,7.18,7.18c0,0-3.85-9-6.67-9.75C634.3,470.34,628.14,473.16,617.1,471.37Z"/><path d="M641.49,459.05s-1.29-.77-2.31,1.28c0,0-1.29,5.13-2.06,5.9,0,0,6.68.9,9.5,4.49,0,0-2.57-7.57-6.67-6.41,0,0,.51-1.8.77-3.34,0,0,4,.9,5.51,3.47C646.23,464.44,642.77,459.3,641.49,459.05Z"/><path d="M612.61,470.47s3.85,5.77,4.11,9C616.72,479.45,616.07,471.75,612.61,470.47Z"/><path class="cls-37" d="M578.57,460.75s56.09-16.18,64.07-12.21l1.78-6.36S643.69,424.78,578.57,460.75Z"/><circle class="cls-12" cx="630.71" cy="456.61" r="5.66"/><path class="cls-14" d="M612.86,469.17s18.36,7.46,26-7.76C639.56,461.73,633.29,479.78,612.86,469.17Z"/><path class="cls-12" d="M622.55,456.17a10.82,10.82,0,0,0,1.53,6.79,6.43,6.43,0,0,0,5.79,2.83,8.85,8.85,0,0,0,6.08-3,11.83,11.83,0,0,0,2.57-6.5,17.54,17.54,0,0,0,.12-1.77,8.41,8.41,0,0,0,0-.87,4.8,4.8,0,0,0-.08-.85,6.92,6.92,0,0,0-1.28-3.1,6.44,6.44,0,0,0-5.76-2.71,10.09,10.09,0,0,0-9,9.21Zm-.1,0a12.08,12.08,0,0,1,2.53-6.74,9.5,9.5,0,0,1,6.45-3.52,7,7,0,0,1,3.77.71,7.53,7.53,0,0,1,2.85,2.52,7.33,7.33,0,0,1,1.3,3.54,7.79,7.79,0,0,1,0,1.87c-.06.6-.14,1.2-.26,1.8A14.55,14.55,0,0,1,636.2,463a9.76,9.76,0,0,1-6.26,3.65,6.63,6.63,0,0,1-3.73-.67,6.43,6.43,0,0,1-2.66-2.66A13.35,13.35,0,0,1,622.45,456.16Z"/><path d="M656.49,444c-1.53-.51-7.75-5.1-7.75-5.1,2.41-13-13.06-6.63-13.06-6.63-11.38,3.32-22.29,8.93-33,14q-8.52,4-17,8.18c-2.12,1-4.21,2.14-6.34,3.13-1.74.8-6.23,4.46-7.62,4.17l14,3c-1.17-.29-4.6-1.54-1.08-5.44,51.4-22.31,57.91-14.76,57.91-14.76-1.53,5.34-3.73,14.94-3.73,14.94Z"/><path d="M585.79,464.71l.36.08Z"/><polygon class="cls-38" points="648.12 447.59 638.32 455.53 634.5 453.12 648.12 447.59"/><path class="cls-39" d="M412.36,374s84,13.48,95.7,27.6c0,0,3.12,62.31-12.23,72.87,0,0-61.34,22.43-94.95-28.55l-31.05-23.23S434.35,401.57,412.36,374Z"/><path class="cls-14" d="M386.71,422.3s72.39-17.71,90.87-1.54l7.7,11.56S460.64,413.83,386.71,422.3Z"/><path class="cls-9" d="M398.15,425.1s69.51-8.81,80.28-.49c0,0,5.38,6.36,5.38,12.24C483.81,436.85,486.75,414.82,398.15,425.1Z"/><path class="cls-40" d="M499,387.9s21.53,68,5.38,86.64c0,0-33.29,21.53-48.95,19.09,0,0-67.06-40.14-81.25-60.21,0,0,97.89-12.73,109.64,3.43,0,0,4.9,14.68,5.87,23,0,0,7.84-24-8.81-56.78,0,0-9.3-21-39.15-33.77C441.72,369.3,492.62,384,499,387.9Z"/><path class="cls-34" d="M399.13,438.32s67.06-10.77,79.3-2.94c0,0,8.81,14.68,9.79,24.47,0,0-8.69,1.78-12.61,2.76,0,0-24.23,7.34-40.38-4.41C435.23,458.2,401.82,441.31,399.13,438.32Z"/><path d="M446.61,433.42a55.89,55.89,0,0,1,.56,7.2c.06,2.31,0,4.57,0,6.79s0,4.41.08,6.61a68.86,68.86,0,0,0,.66,7,12.66,12.66,0,0,1-4.5-6.14,21.45,21.45,0,0,1-1.24-7.44,26.07,26.07,0,0,1,1.08-7.31A19.73,19.73,0,0,1,446.61,433.42Z"/><path class="cls-35" d="M414.79,436.36s-4.4,8.81-1.46,12.72c0,0-10.09-8.15-11.07-11.08Z"/><path class="cls-41" d="M448.08,463.28c1.88.94,10.28,6.36,23.71-1.56,1.9,5.32,14.24-11,7.07-26.71-3.95-3.84-13.05-4.13-32.25-1.59C445.91,437.48,441.87,452.59,448.08,463.28Z"/><path class="cls-35" d="M486.26,452s-1.47,7.4-3.92,8.87l5.88-1S487.73,454.41,486.26,452Z"/><path d="M364.38,431s16.15,11.26,21.05,10.77l19.09.49s-.93,1.18,3-.29c0,0,62.61-11.95,70.93-6.56,0,0,7.83,12.24,9.79,24.47,0,0-.49-26.92-9.3-30.34,0,0-8.81-6.37-44.55-2,0,0-50.9,5.87-57.26,4.89C377.11,432.44,372.7,432.93,364.38,431Z"/><path class="cls-9" d="M421.65,416.29s65.59-12.24,68,31.33C489.68,447.62,500.94,402.09,421.65,416.29Z"/><path d="M399.13,438.32s7.83,6.36,9.79,8.32c0,0,37.14,22.94,45.95,21.11,0,0,19.15-1.53,34.81-7.9a10.13,10.13,0,0,0-1.46,0s-14.22,1.78-28.35,2.88c0,0-9.4,2.08-31.06-8.57C426.24,452.51,410.62,445.46,399.13,438.32Z"/><path class="cls-37" d="M404.52,442.23s81.25-6.82,83.7,17.62c0,0-2.78-19.48-9.79-24.47,0,0-24.76-8.25-69,1.47C409.41,436.85,406.92,436.36,404.52,442.23Z"/><path d="M378.37,422.75s5.65,11.81,15.91,11.3C394.28,434.05,380.93,436.61,378.37,422.75Z"/><path d="M412.12,446.69s-10.78,4.81-15.4,7.89C396.72,454.58,400.57,443.61,412.12,446.69Z"/><path d="M413.94,448.56s-5.4,5.27-10,10.45C403.92,459,407.42,445.12,413.94,448.56Z"/><path d="M417.51,451.12s-7.31,8.28-7.31,10.2c0,0,7.7-7.89,10.39-8.66Z"/><path d="M390.56,446.11s17.33-1.15,19.64.39C410.2,446.5,406.35,441.49,390.56,446.11Z"/><path d="M430.22,457.28s-1.16,8.85,0,12.32C430.22,469.6,432.14,461.51,430.22,457.28Z"/><path d="M424.44,455s-5.77,3.85-6.93,10.39C417.51,465.36,420.21,461.13,424.44,455Z"/><circle class="cls-12" cx="464.76" cy="448.14" r="6.55"/><path class="cls-14" d="M428.29,455.22s29.15,13.71,48,6.87C476.27,462.09,455.9,471.49,428.29,455.22Z"/><path d="M479.57,437.08a12.75,12.75,0,0,1,1.19,3.09,15.74,15.74,0,0,1,.48,3.28c0,.55,0,1.1-.06,1.65s-.12,1.1-.14,1.65c-.12,1.09-.14,2.18-.26,3.28a18.3,18.3,0,0,1-5.59,11.74l-.07-.06c.49-1,1.1-1.88,1.58-2.85s1-1.89,1.39-2.89.83-2,1.22-3c.18-.5.31-1,.48-1.53.08-.26.16-.51.25-.77l.2-.78a13.91,13.91,0,0,0,.47-3.21,23.08,23.08,0,0,0-.3-3.22c-.25-2.13-.54-4.24-.94-6.39Z"/><path d="M457.2,440.31A11.17,11.17,0,0,0,461,456.77a9,9,0,0,0,4.66,1c.4-.06.8-.07,1.2-.16a9.6,9.6,0,0,0,1.16-.34,8.19,8.19,0,0,0,2.14-1.1,7.4,7.4,0,0,0,2.69-3.82,13.41,13.41,0,0,0,.53-4.72v-.05a13.4,13.4,0,0,0-1.1-5.88,8.63,8.63,0,0,0-1.62-2.45,12.59,12.59,0,0,0-1.13-.92,8,8,0,0,0-1.3-.67,9.75,9.75,0,0,0-2.9-.68l-1.53-.08a9.66,9.66,0,0,0-1.52.15A8.11,8.11,0,0,0,457.2,440.31Zm-.08-.05a9.45,9.45,0,0,1,5.06-3.67,10.91,10.91,0,0,1,6.42.16l.39.12.37.2.74.4a11.82,11.82,0,0,1,1.32,1,9,9,0,0,1,1.84,2.75,12.08,12.08,0,0,1,.89,3.14,15.31,15.31,0,0,1,.16,3.25v0a13.07,13.07,0,0,1-.79,5,8.16,8.16,0,0,1-3.13,3.91,10.26,10.26,0,0,1-4.7,1.6,10.8,10.8,0,0,1-4.92-.78,10.15,10.15,0,0,1-4.06-3,10.32,10.32,0,0,1-2.11-4.62,11,11,0,0,1,.32-5A15.63,15.63,0,0,1,457.12,440.26Z"/><polygon class="cls-38" points="484.48 442.58 469.37 447.86 479.41 448.6 484.48 442.58"/><path class="cls-42" d="M656.23,224s32.34,22.33,32.34,36.19C688.57,260.21,665.47,229.41,656.23,224Z"/><path class="cls-12" d="M158,733.79s-26.18,16.94-30.8,22.33c0,0-54.67,90.1-71.61,124L-8.71,924l-1.16,20.79h104s-.77-53.9,3.85-61.6l47-124.75S151.07,741.49,158,733.79Z"/><path class="cls-42" d="M625,182.43s10.4,1.54,12.71-6.93c0,0,4.62-19.25-1.54-38.5,0,0-23.1-52.36-94-85.48,0,0-58.52-25.41-70.84-32.34,0,0-47.75-20.79-110.89-7.7,0,0-94.72,14.63-151.7,68.54,0,0-50.83,43.89-74.7,149.39,0,0-13.09,44.66-10,75.46,0,0-22.33,17.71-19.25,53.91l.27.2c.08-.31.16-.61.25-.92l.06-.22a92.89,92.89,0,0,1,1.34-10.91c1.17-7.28,2.91-15.9,8.86-20.5,14.44-11.15,27.7-7.15,39.27,4.62,1,1,7.49,6.69,8.42,7.81,1.5,1.79,4.7,7.83,2.17,2.75,1.66,3.33,4.7,6,6.42,9.44a67.7,67.7,0,0,1,5.49,14.6c6.06,11,14.31,25.31,17.55,28.55,0,0,12.32,14.63,25.41,14.63,0,0-18.48-10.78-23.1-23.87,0,0,15.4,21.56,26.95,18.48,0,0,14.63-15.4,18.48-23.1,0,0-10.78,10.78-16.94,15.4,0,0,10.78-16.94,14.63-21.56,0,0-13.09,10.78-18.48,16.17,0,0-19.25-30.8-.77-57.76,0,0,44.66-26.18,52.36-34.65,0,0,27.72-13.86,40.82-27.72,0,0-32.35,23.1-46.21,23.87a40.61,40.61,0,0,1,18.48-18.48s25.42-12.32,37.74-23.1c0,0-23.88,13.86-33.12,14.63,0,0,27.73-14.63,34.66-25.41,0,0-21.57,14.63-33.89,15.4,0,0-6.16-.77-10.78,2.31a75.33,75.33,0,0,1,16.59-15.61,38.11,38.11,0,0,1,8.82-4.41s-7.7,8.47-5.39,9.24a23.37,23.37,0,0,0,13.1-10.78,45.51,45.51,0,0,1,6.64-7c4.14-3.56,9.91-7.22,16.46-7.6,0,0-8.47,6.16-8.47,9.24,0,0,8.47-8.47,17.71-10.78,0,0-6.16-6.93-20-1.54,0,0-12.32,6.16-16.17,3.85,0,0,10-16.94,20-20.8,0,0,25.41-7.7,38.5-16.17,0,0,44.66-17.71,60.06-17.71,0,0,24.64,6.16,35.43.77,0,0-24.65,0-28.5-2.31,0,0,18.48-6.93,30.81-5.39,0,0,30-2.31,45.43,10.78a75.87,75.87,0,0,0-10.78-10s20,3.85,32.34,16.17A52.54,52.54,0,0,0,521.47,167s39.34,15.74,47.23,24.22c-2.94-4.3-10.67-14.45-20.28-18.06,0,0,22.33,3.85,26.18,12.32,0,0-3.17-6.86-7.32-11,4.16,3.18,12.14,8.88,16.56,9.43a9,9,0,0,1,.77-10s13.09,2.31,15.4,6.16c0,0,3.08-3.85,3.85-7.7,0,0,27,21.56,28.5,30.8l10,16.18S628.51,188.59,625,182.43Z"/><path class="cls-42" d="M553.45,175.73q-.68,2.52-1.41,5c7.37,3.74,13.92,7.56,16.66,10.51C566.29,187.73,560.67,180.29,553.45,175.73Z"/><path class="cls-8" d="M625,182.43s10.4,1.54,12.71-6.93c0,0,4.62-19.25-1.54-38.5,0,0-23.1-52.36-94-85.48,0,0-2.39-1-6.31-2.75,2.92,5.39,5.66,10.87,8.11,16.52,10.09,23.26,16.55,47.69,15.32,73.26a176.56,176.56,0,0,1-5.57,35.82c6.86,1.71,18.16,5.35,20.79,11.14,0,0-3.17-6.86-7.32-11,4.16,3.18,12.14,8.88,16.56,9.43a9,9,0,0,1,.77-10s13.09,2.31,15.4,6.16c0,0,3.08-3.85,3.85-7.7,0,0,15.29,14.41,22,24.68l16.54,22.3S628.51,188.59,625,182.43Z"/><path class="cls-8" d="M503.18,164.49c-.58-.45-1.15-.89-1.73-1.31,0,0,.55.11,1.5.34A266.55,266.55,0,0,0,494,132.71q-1-2.67-2-5.31a2.49,2.49,0,0,0-.11-.29c.19.51.17.53-.57-1.42-1.2-2.66-2.42-5.31-3.75-7.9-2.79-5.46-6.21-10.34-9.49-15.48-.47-.53-.9-1.09-1.36-1.62-.82-1-1.66-1.88-2.53-2.79-1-1.09-2.12-2.1-3.22-3.12l-.16-.13-1.24-.8a74,74,0,0,0-9-4.94c-1-.48-4.6-1.94-2.59-1.16-1.23-.48-2.45-1-3.69-1.44C447.58,83.78,440.74,81.57,434,79c-8-3.08-15.51-7-23.32-10.55l-.76-.3c-1-.4-2.08-.81-3.13-1.19-1.54-.55-3.09-1.09-4.65-1.58a103.23,103.23,0,0,0-10.7-2.81c-1.53-.32-3.07-.59-4.62-.84-.13,0-1.72-.18-2.69-.26a97.71,97.71,0,0,0-10.69-.28c-3.24.08-6.47.34-9.69.69.61,0-2.65.42-3.6.6-1.64.29-3.28.62-4.91,1-7.32,1.59-14.51,3.73-21.63,6-13,4.2-25.73,9.06-38.67,13.35-27.42,9.09-58.15,17.39-86.9,9.66a17.21,17.21,0,0,1-7.41-4.14C185.33,105.51,152.1,150,134.13,229.41c0,0-3.91,13.34-6.95,30.46q4.68-4.32,9-9.05,2.31-2.55,4.51-5.18c1-1.18,1.94-2.38,2.9-3.57l.23-.28c.43-.58,1.46-1.92,1.62-2.14q.93-1.25,1.83-2.49,2.28-3.14,4.5-6.31c2.67-3.83,5.29-7.71,7.9-11.59,11-16.4,22.05-33.07,35.72-47.44,23.93-25.15,56-44.15,90-51.59a237.69,237.69,0,0,1,52.2-5c9.77.06,19.55.69,29.31.51,2.74,0,5.44-.32,8.17-.46h.15c1.07-.18,2.13-.37,3.19-.6a72.51,72.51,0,0,0,7.26-2.08l1.08-.37c-.15,0,.15-.13,1.44-.51,8.12-4.19,16.38-8.1,25.74-8.08,9,0,17.62,3.14,25.49,7.19,12.75,6.56,23.61,17.15,32.67,28.1a273.9,273.9,0,0,1,18.16,25A60.07,60.07,0,0,1,504,168.08C503.71,166.88,503.45,165.69,503.18,164.49Z"/><path class="cls-8" d="M548.11,178.79c.43-1.73.86-3.46,1.27-5.19-.32-.14-.63-.29-1-.41l1,.19q1.1-4.56,2.07-9.17,1.13-5.37,2.09-10.77c.32-1.81.63-3.61.91-5.43,0-.31.36-2.4.54-3.58.11-1,.46-3.7.5-4.06.21-1.82.39-3.65.55-5.47.33-3.65.57-7.29.72-11a190.15,190.15,0,0,0-.36-22.52c-.12-1.53-.26-3.07-.43-4.6-.07-.66-.15-1.32-.23-2,0-.22-.07-.48-.12-.81-.63-3.52-1.23-7-2-10.52s-1.77-6.9-2.86-10.29c-.47-1.46-1-2.9-1.49-4.34-.18-.51-1.49-3.66-1.62-4.06a122.1,122.1,0,0,0-7.75-14.33c-11-4.81-57.65-25.22-68.49-31.32,0,0-47.75-20.79-110.89-7.7,0,0-69.46,10.74-125.2,47.67l1.2,0q2.9-.13,5.77-.44c.61-.06,2.46-.3,2.27-.26l.25,0c4-.63,8-1.42,11.95-2.33,16.13-3.69,31.78-9.2,47.35-14.71,30-10.59,59.61-19.59,91.7-14.72,16.57,2.51,30.88,9.93,46,16.65-1.82-.83,2.2.84,3.31,1.26,1.65.63,3.32,1.23,5,1.82,3.41,1.22,6.82,2.4,10.22,3.63a172.07,172.07,0,0,1,22.59,9.6c26.22,14,40,43.93,48.67,71a343.59,343.59,0,0,1,10.85,45.55C544.29,177,546.21,177.87,548.11,178.79Z"/><path class="cls-42" d="M210.37,403.44s6.93,69.3-23.1,84.7c0,0,12.32-3.08,22.33-24.64C209.6,463.5,215,428.08,210.37,403.44Z"/><path class="cls-42" d="M217.3,420.38s8.47,44.66,4.62,53.13c0,0-10,10-20,12.32,0,0,14.63-8.47,16.17-21.56A158.16,158.16,0,0,0,217.3,420.38Z"/><path class="cls-43" d="M463.72,720.7s8.08,31.19-9.25,69.3c0,0,37,11.56,76.24-18.48,0,0,23.1-39.27,30-67C560.74,704.53,491.44,727.63,463.72,720.7Z"/><path class="cls-42" d="M169.36,518.19a62,62,0,0,1-1.11,11.86,52.65,52.65,0,0,1-1.36,5.81c-.59,1.91-1.28,3.78-2,5.63-1.5,3.69-2.91,7.38-4.62,11a32.65,32.65,0,0,1-3.07,5.21,21.89,21.89,0,0,1-4.3,4.41l-1.52,1.16,0-2c0-1.8-.09-3.59-.08-5.39s.05-3.59.07-5.39v-.44l.28-.27c.85-.79,1.69-1.65,2.51-2.51s1.62-1.73,2.42-2.61,1.55-1.8,2.25-2.75a17.67,17.67,0,0,0,1.9-3l.19.06a14.93,14.93,0,0,1-1.34,3.41,34.44,34.44,0,0,1-1.93,3.12,51,51,0,0,1-4.59,5.69l.29-.7c0,1.8.1,3.59.07,5.39s0,3.59-.08,5.39l-1.56-.8a22.2,22.2,0,0,0,4.15-3.85A36.62,36.62,0,0,0,164,541.19c.49-1.91.89-3.84,1.3-5.75l1.32-5.74,2.59-11.53Z"/><path class="cls-44" d="M606.18,392.91S565.62,436,569.73,466.33c0,0,23.61,91.38,24.12,100.62,0,0-12.83-65.2-15.4-79.06C578.45,487.89,564.59,444.25,606.18,392.91Z"/><path class="cls-42" d="M179.05,623.42s3.6,26.18-3.08,34.39a131.08,131.08,0,0,0,0,14.89l3.08,20.53s2.57-26.18,2.06-34.9C181.11,658.33,182.65,630.6,179.05,623.42Z"/><path class="cls-32" d="M360.53,381.11s40.81-39.28,68.53-40.05c0,0,77.78,21.57,104,47C533,388,456.79,329.51,360.53,381.11Z"/><path class="cls-32" d="M608.49,391.89s7.7-15.4,21.56-20.79l33.88-9.24.77,17.71S626.2,378,608.49,391.89Z"/><path class="cls-25" d="M200.12,523.14q4.09,13.92,8.44,27.74t9,27.54c3.09,9.15,6.34,18.23,9.94,27.17.9,2.24,1.78,4.48,2.76,6.67s1.87,4.44,2.93,6.59,2,4.36,3.12,6.48l1.7,3.14c.58,1,1.11,2.14,1.75,3.09,1.3,2,2.67,4,4.06,5.92s2.87,3.85,4.3,5.78l4.47,5.67c1.48,1.9,3.09,3.69,4.62,5.55,3.06,3.73,6.37,7.24,9.58,10.83,1.59,1.82,3.31,3.51,5,5.26l5,5.2c1.65,1.76,3.45,3.37,5.18,5.05l5.25,5c1.71,1.7,3.56,3.26,5.37,4.86l5.44,4.78c3.58,3.24,7.41,6.2,11.16,9.23s7.48,6.12,11.4,8.94l11.68,8.58c3.94,2.78,8,5.44,12,8.16l6,4c1,.69,2,1.33,3,2l3.07,1.92L368.64,746l3.07,1.93,3.13,1.81,6.27,3.62,12.52,7.26,25.59,13.66c4.17,2.29,8.51,4.33,12.9,6.23,2.19,1,4.43,1.82,6.65,2.7l3.38,1.22c1.12.41,2.25.8,3.4,1.15a118.63,118.63,0,0,0,27.95,5.81l3.56.19c.59,0,1.18.08,1.78.07l1.79,0c2.38-.06,4.77,0,7.11-.25a75.52,75.52,0,0,0,14-2.6,54.88,54.88,0,0,0,13-5.54,37.52,37.52,0,0,0,10.55-9.2l0,0,0,0a116.59,116.59,0,0,0,7.64-9.55q3.62-5,6.82-10.24c2.14-3.49,4.18-7.06,6-10.74s3.54-7.41,5.15-11.2l.28.1c-1.42,3.88-2.91,7.73-4.68,11.47s-3.63,7.43-5.65,11-4.25,7.11-6.58,10.53a120.73,120.73,0,0,1-7.52,9.95l.06-.08a38.38,38.38,0,0,1-10.93,10,57.67,57.67,0,0,1-13.5,6A78,78,0,0,1,488,794.17c-2.47.29-4.92.29-7.37.39l-1.83.06c-.61,0-1.23,0-1.84-.06l-3.69-.16c-1.23,0-2.44-.21-3.66-.33l-3.66-.4c-2.41-.43-4.85-.76-7.24-1.28s-4.79-1-7.14-1.7c-1.18-.32-2.36-.63-3.53-1l-3.5-1.11c-1.17-.36-2.32-.76-3.47-1.18l-3.44-1.25c-2.27-.9-4.55-1.77-6.78-2.76a143.08,143.08,0,0,1-13.15-6.48L392.25,763l-12.49-7.43-6.23-3.74L370.42,750l-3-2-12.16-7.95-3-2c-1-.65-2-1.33-3-2l-5.91-4.22c-3.93-2.83-7.92-5.58-11.81-8.45l-11.52-8.85c-3.9-2.86-7.59-6-11.35-9L303,700.88c-1.9-1.5-3.66-3.17-5.5-4.73L292,691.39c-1.82-1.59-3.67-3.15-5.42-4.82-3.55-3.29-7.14-6.53-10.65-9.87l-5.19-5.08c-1.72-1.71-3.5-3.36-5.14-5.14-3.33-3.52-6.75-7-9.92-10.63-1.6-1.83-3.26-3.6-4.8-5.47l-4.66-5.6c-1.48-1.93-3-3.84-4.44-5.79s-2.87-3.94-4.21-6c-5.13-8.48-8.83-17.44-12.39-26.48s-6.71-18.19-9.7-27.4c-5.87-18.45-11.13-37.08-15.63-55.9Z"/><path class="cls-14" d="M217.58,578.42S258.88,649.86,302,683l117.22,91.29s-67.48-28-152.41-109C266.81,665.31,235.57,638.66,217.58,578.42Z"/><path class="cls-25" d="M534.82,609.56s18.73,11.55,38.5.51C573.32,610.07,559.72,625.47,534.82,609.56Z"/><path class="cls-11" d="M500.78,542.93c-1.92,2.44-4,4.69-6.07,6.91s-4.21,4.39-6.5,6.41-4.77,3.85-6.94,6c-1.08,1.07-2.11,2.19-3.11,3.35s-1.91,2.38-2.83,3.59-1.79,2.49-2.71,3.69l-2.77,3.62-2.75,3.63c-.87,1.23-1.78,2.44-2.71,3.63-3.69,4.8-7.3,9.6-10.94,14.58l-.26-.14a63.5,63.5,0,0,1,8.62-16.35c.92-1.23,1.86-2.46,2.83-3.66s2-2.33,3-3.49a83.58,83.58,0,0,1,6.44-6.6c1.12-1.05,2.25-2.09,3.31-3.2s2.15-2.17,3.16-3.32c2.05-2.27,3.83-4.81,5.88-7.09a38.46,38.46,0,0,1,3.23-3.28l1.69-1.56,1.75-1.49a56.82,56.82,0,0,1,7.46-5.45Z"/><path class="cls-45" d="M490.3,460.26a42.82,42.82,0,0,1-5.12,8.81c-1,1.35-2.17,2.63-3.26,3.93s-2.14,2.64-3.19,4a49.91,49.91,0,0,1-7.22,7.24,32.31,32.31,0,0,1-9,4.94l0-.1a63,63,0,0,0,8.33-5.67c2.6-2.12,5.06-4.41,7.47-6.78a39.18,39.18,0,0,0,3.35-3.81c.52-.66,1-1.37,1.45-2.08s.94-1.41,1.38-2.13c1.88-2.8,3.8-5.57,5.71-8.38Z"/><path class="cls-12" d="M421.65,416.29q8.1-.92,16.27-1.18c5.44-.2,10.89-.22,16.33.08,2.72.13,5.45.33,8.16.65a69.59,69.59,0,0,1,8.09,1.33,42.06,42.06,0,0,1,7.84,2.5,14.56,14.56,0,0,1,6.51,5.12v0h0a53.47,53.47,0,0,1,2.19,5.48c.63,1.86,1.16,3.75,1.61,5.66a47.34,47.34,0,0,1,.94,5.8,35.83,35.83,0,0,1,.08,5.86,40.48,40.48,0,0,0-.36-5.83,47.72,47.72,0,0,0-1.16-5.71,56.76,56.76,0,0,0-1.73-5.56,52.55,52.55,0,0,0-2.28-5.34l0,0a14.18,14.18,0,0,0-6.2-4.72,40.69,40.69,0,0,0-7.68-2.38,108.37,108.37,0,0,0-16.09-2c-2.7-.17-5.41-.25-8.12-.31s-5.43-.08-8.15,0C432.51,415.8,427.07,416,421.65,416.29Z"/><path class="cls-25" d="M523.78,600.57s-13.86,10-20.79,8.47C503,609,497.85,600.32,523.78,600.57Z"/><path class="cls-12" d="M390,435.06c7.88-2.35,15.87-4.31,23.9-6.05s16.15-3.14,24.31-4.23a157.33,157.33,0,0,1,24.64-1.4,64.94,64.94,0,0,1,12.27,1.52,31.8,31.8,0,0,1,5.85,2,16.48,16.48,0,0,1,5,3.54c-3-2.85-7-4.24-11-5.06a63.78,63.78,0,0,0-12.18-1.23,167.59,167.59,0,0,0-24.5,1.62c-8.13,1-16.22,2.43-24.27,4q-6,1.17-12,2.52C398,433.14,394,434.08,390,435.06Z"/><path class="cls-12" d="M579.92,454.05c5.27-4.17,10.69-8.13,16.21-12a200.06,200.06,0,0,1,17.1-10.73c1.49-.79,3-1.56,4.55-2.24a23.82,23.82,0,0,1,4.87-1.63c3.38-.35,6.7-.59,10.06-.84l10-.73c3.36-.2,6.71-.44,10.06-.62-3.34.4-6.67.74-10,1.11l-10,1c-3.32.36-6.7.58-10,1a22.53,22.53,0,0,0-4.63,1.61c-1.52.67-3,1.45-4.47,2.24-5.9,3.15-11.53,6.81-17.14,10.48q-4.2,2.76-8.35,5.62C585.43,450.21,582.68,452.14,579.92,454.05Z"/><path d="M608.67,439.68a70.9,70.9,0,0,1,9.41-3.9,87.9,87.9,0,0,1,9.84-2.72A74.68,74.68,0,0,1,638,431.54a28.22,28.22,0,0,1,6.81-.09c-1.69.15,0,.12-1.69.33l-2.53.21-2.51.31c-3.34.45-6.67,1-10,1.74s-6.57,1.54-9.82,2.47c-1.62.47-3.24,1-4.84,1.51S610.26,439.1,608.67,439.68Z"/><path class="cls-45" d="M572.29,468.89s24.64,37.74,30,40.05C602.32,508.94,578.45,495.07,572.29,468.89Z"/><path class="cls-42" d="M353.51,377.43s39.15-3.92,48.1-2.24c0,0-34.11-2.8-41.38-2.24l-18.46,4.48Z"/><path class="cls-8" d="M468.34,718.39s28.49,13.09,53.9,10a43.38,43.38,0,0,0,27-13.09S520.7,747.65,468.34,718.39Z"/><path class="cls-13" d="M145,758.41c4.7,9.67,9.7,19.17,14.89,28.57s10.69,18.63,16.45,27.68a192.84,192.84,0,0,0,19.27,25.76,89.37,89.37,0,0,0,11.69,11,41.14,41.14,0,0,0,14,7.49l-.27.77c-7.23-3.2-14.36-6.63-21.46-10.12s-14.08-7.19-21-11-13.7-7.93-20.27-12.34c-3.29-2.2-6.51-4.52-9.59-7a50.72,50.72,0,0,1-8.4-8.36l.08-.06a51,51,0,0,0,8.61,8.07c3.11,2.42,6.35,4.67,9.66,6.82,6.62,4.29,13.48,8.2,20.4,12s13.93,7.42,21,11,14.17,7,21.33,10.3l-.28.76a41.93,41.93,0,0,1-14.12-7.83,96.19,96.19,0,0,1-11.61-11.22A243.21,243.21,0,0,1,175.74,815c-6-8.92-11.47-18.21-16.59-27.66s-9.93-19.09-14.28-28.92Z"/><path class="cls-8" d="M113.34,328.74s53.91-93.94,180.19-149.39c0,0-110.88,73.93-141.69,123.21,0,0,38.51-24.64,64.69-33.88,0,0-52.36,35.42-58.53,46.2,0,0,23.11-6.16,37-1.54,0,0,24.64,10.78,44.66,0,0,0-47.74,15.4-60.06,18.48,0,0,29.26-4.62,43.12,0,0,0-44.66,12.32-52.36,12.32C170.33,344.14,131.82,308.72,113.34,328.74Z"/><path class="cls-8" d="M606.38,396a149.5,149.5,0,0,0-11.85,13.43,141.06,141.06,0,0,0-10.21,14.69,102.43,102.43,0,0,0-7.91,16,62.55,62.55,0,0,0-4.07,17.27c-.16,1.48-.15,3-.18,4.44,0,.74.06,1.47.08,2.21a20.36,20.36,0,0,0,.18,2.21l.28,2.19c.09.73.32,1.45.47,2.18l1,4.37,4.07,17.47,4,17.48,3.89,17.52L581.78,510l-4.27-17.43-4.21-17.45-1-4.36c-.16-.73-.39-1.44-.49-2.19l-.3-2.26a21.52,21.52,0,0,1-.19-2.26c0-.76-.12-1.51-.1-2.26,0-1.51,0-3,.17-4.53a63.11,63.11,0,0,1,4.21-17.51,96.76,96.76,0,0,1,8.1-16.07A141.22,141.22,0,0,1,606.38,396Z"/><path class="cls-42" d="M436,167.8c-11,7.31-22,14.54-33.18,21.56S380.4,203.29,369,210s-22.81,13.28-34.5,19.4c-5.85,3.07-11.77,6-17.83,8.65L312.14,240c-1.55.59-3.09,1.19-4.65,1.75a51.1,51.1,0,0,1-9.65,2.52l-1.13.15.78-.84c5.23-5.6,10.63-11,16.14-16.33s11.17-10.46,17-15.42a212.17,212.17,0,0,1,18.16-14c3.17-2.14,6.41-4.19,9.76-6A61.67,61.67,0,0,1,369,187.05a61.57,61.57,0,0,0-10.37,4.85c-3.32,1.89-6.52,4-9.65,6.16-6.22,4.42-12.19,9.2-18,14.17s-11.4,10.17-16.87,15.5-10.85,10.77-16,16.38l-.35-.69a50.94,50.94,0,0,0,9.45-2.52c1.54-.56,3.07-1.17,4.6-1.77l4.53-1.94c6-2.66,11.9-5.64,17.76-8.64,11.71-6.05,23.19-12.54,34.57-19.19s22.66-13.5,33.86-20.46S424.92,175,436,167.8Z"/><path class="cls-14" d="M258.14,432l-.95,26.18-1,26q-.51,13-1.17,25.87l-1.33,25.9-.33-.13c2.79-3.46,5.68-6.84,8.54-10.24s5.77-6.77,8.71-10.11q8.79-10,18-19.64c3.07-3.22,6.25-6.33,9.42-9.46s6.45-6.14,9.84-9,6.83-5.74,10.35-8.46l5.46-3.88,5.76-3.46,0,.94L311.74,455,294,447.32Zm-.06-.08,35.81,14.68,18,7.39,18,7.52.95.4-.91.54-5.66,3.42-5.43,3.83c-3.52,2.69-7,5.41-10.34,8.35-6.71,5.8-13.14,11.93-19.38,18.26s-12.33,12.79-18.24,19.43S259.18,529.06,253.64,536l-.36.44,0-.56,1-26.08c.33-8.71.71-17.43,1.14-26.11l1.3-26Z"/><path class="cls-42" d="M151.8,503.57c-3.18,1.17-6.51,2.38-9.67,3.75a99.49,99.49,0,0,0-9.33,4.58,44.23,44.23,0,0,0-8.38,6,18,18,0,0,0-3.25,3.93,9.9,9.9,0,0,0-1.45,4.82v-.08q2.22,6.39,4.58,12.72l4.82,12.64-.75.06c.84-4.51,2-9,3.23-13.34a123.43,123.43,0,0,1,4.55-12.95,77.5,77.5,0,0,1,6.35-12.19,45.18,45.18,0,0,1,4.19-5.46A25.5,25.5,0,0,1,151.8,503.57Zm.09-.05a33.7,33.7,0,0,0-4.86,4.84,45.77,45.77,0,0,0-3.92,5.54,85.65,85.65,0,0,0-6,12.18c-1.73,4.2-3.18,8.51-4.52,12.86s-2.49,8.75-3.43,13.19l-.3,1.37-.45-1.31L124,539.42q-2.25-6.37-4.65-12.7l0,0v0a10.47,10.47,0,0,1,1.34-5.13,18.71,18.71,0,0,1,3.23-4.21,39.1,39.1,0,0,1,8.54-6.15,77.88,77.88,0,0,1,9.5-4.41c1.63-.63,3.27-1.24,4.93-1.77l2.49-.78,1.26-.37.63-.17.31-.08C151.63,503.57,151.69,503.49,151.89,503.52Z"/><path class="cls-8" d="M535.37,46.16C545.44,53,555.71,59.73,566,66.28s20.79,12.92,31.41,19,21.39,11.87,32.48,17c5.56,2.54,11.2,4.91,17,6.88s11.73,3.56,17.82,3.73h.2l0,.18a136.34,136.34,0,0,1,2.27,23.23,107.38,107.38,0,0,1-1.91,23.26,68.57,68.57,0,0,1-3.19,11.24,52.48,52.48,0,0,1-5.24,10.46,41.85,41.85,0,0,1-17.41,15.37l-.39.19-.14-.42c-2.43-7.4-5.19-14.71-8-22S625,160,621.73,152.91s-6.6-14.13-10.18-21-7.38-13.74-11.39-20.43-8.3-13.19-12.84-19.53a201.58,201.58,0,0,0-14.71-18.14A127.25,127.25,0,0,0,555.43,58,91.42,91.42,0,0,0,535.37,46.16Zm-.08,0a85.42,85.42,0,0,1,20.42,11.48A127.6,127.6,0,0,1,573.09,73.3,203.32,203.32,0,0,1,588,91.39q6.91,9.48,13,19.52a387.55,387.55,0,0,1,21.63,41.59,439.89,439.89,0,0,1,17,43.68l-.53-.23a41.14,41.14,0,0,0,17.26-15,51.75,51.75,0,0,0,5.25-10.33,67.44,67.44,0,0,0,3.24-11.15,105.83,105.83,0,0,0,2-23.16,137.1,137.1,0,0,0-2.42-23.14l.23.19c-6.19-.13-12.19-1.74-18-3.63A183.33,183.33,0,0,1,629.61,103c-11.15-5.1-22-10.83-32.59-17S576,73.4,565.71,66.76,545.29,53.34,535.29,46.11Z"/><path class="cls-11" d="M538.41,612.12s10.78,13.86,20,13.86l9.24,15.4,6.16-29.26S549.19,619.82,538.41,612.12Z"/><path class="cls-8" d="M174.91,596c-3.58,3.62-7.17,7.46-10.56,11.35s-6.69,7.92-9.74,12.11a115,115,0,0,0-8.35,13,58.22,58.22,0,0,0-5.66,14.34l0-.19a36,36,0,0,1,1.86,10,53,53,0,0,1-.44,10.15c-.31,1.67-.52,3.35-1,5-.2.83-.36,1.66-.61,2.47l-.74,2.44c-.23.81-.53,1.61-.83,2.4l-.89,2.38c-.64,1.57-1.37,3.1-2.06,4.66l-.42-.31c3.58-3.71,7-7.58,10.36-11.53s6.55-8,9.6-12.15c1.55-2.07,3-4.22,4.43-6.34s2.78-4.34,4-6.6a55.54,55.54,0,0,0,6-14.12l.08.41a30.27,30.27,0,0,1-4.61-20.73,8.6,8.6,0,0,1,.23-1.33l.3-1.31.3-1.32c.14-.43.3-.85.44-1.27.31-.85.58-1.7.92-2.53l1.2-2.41c.2-.4.39-.81.61-1.2l.74-1.12,1.48-2.24C172.57,598.66,173.77,597.42,174.91,596Zm.07-.07c-.54.69-1.07,1.39-1.61,2.12s-1.14,1.44-1.62,2.19l-1.39,2.27-.69,1.13c-.21.39-.38.8-.57,1.2l-1.13,2.4c-.32.82-.58,1.67-.87,2.51-.13.42-.28.83-.41,1.25l-.27,1.3-.27,1.29a7.28,7.28,0,0,0-.2,1.31,28.24,28.24,0,0,0,.59,10.48,28.81,28.81,0,0,0,4.19,9.55l.13.2,0,.21a56.26,56.26,0,0,1-6,14.42,116.32,116.32,0,0,1-8.58,13q-4.64,6.25-9.78,12.1c-3.42,3.9-6.92,7.72-10.59,11.38l-1.05,1.06.63-1.36c.7-1.53,1.46-3,2.13-4.58l.92-2.36a22.46,22.46,0,0,0,.85-2.38l.76-2.41c.25-.8.41-1.63.62-2.45.44-1.63.68-3.3,1-5a51.61,51.61,0,0,0,.36-10.09,34.57,34.57,0,0,0-2-9.8l0-.1,0-.09a55,55,0,0,1,5.51-14.62A99.78,99.78,0,0,1,154,619a146.7,146.7,0,0,1,9.95-12c1.75-1.93,3.53-3.82,5.38-5.65.9-.93,1.85-1.83,2.77-2.74S173.88,596.78,175,595.92Z"/><path class="cls-46" d="M142.6,284.08S244.25,187.05,332,152.4C332,152.4,218.84,173.19,142.6,284.08Z"/><path class="cls-46" d="M147.22,249.43s83.17-110.89,136.3-131.68c0,0,62.38-34.65,115.51-39.27,0,0-83.16,34.65-97,46.2,0,0,73.93-34.65,150.16-32.34C452.16,92.34,281.21,99.27,147.22,249.43Z"/><path class="cls-46" d="M262.73,17.26S336.66,5.71,385.17,28.81c0,0,60.06,39.27,78.55,37,0,0-68.15-37-71.62-45C392.1,20.72,340.12-1.22,262.73,17.26Z"/><path class="cls-45" d="M490,460.5a29.85,29.85,0,0,0-3.52,2.34c-1.16.82-2.3,1.66-3.49,2.44a69.57,69.57,0,0,1-7.35,4.35,80.77,80.77,0,0,1-7.87,3.3,76.84,76.84,0,0,1-8.15,2.53,40,40,0,0,1-32.81-5.73l.06-.08a52.22,52.22,0,0,0,15.89,5.47,44.12,44.12,0,0,0,8.36.64,55.07,55.07,0,0,0,8.39-.83,42.2,42.2,0,0,0,8.14-2.32,61.54,61.54,0,0,0,7.61-3.72c2.47-1.36,4.92-2.76,7.32-4.25l3.61-2.24c.6-.37,1.22-.73,1.84-1.08a10.45,10.45,0,0,1,1.94-.92Z"/><path class="cls-29" d="M447.54,787.69a312.82,312.82,0,0,1-34.45,18.91c-5.92,2.84-11.93,5.45-18,7.95s-12.2,4.82-18.4,7-12.47,4.08-18.8,5.8c-3.16.91-6.35,1.65-9.53,2.47s-6.39,1.49-9.62,2.07c-6.43,1.31-12.92,2.29-19.43,3.06s-13.07,1.1-19.62,1.3c6.55-.36,13.08-.86,19.56-1.79s12.94-1.93,19.34-3.32c3.21-.64,6.38-1.44,9.57-2.16s6.34-1.59,9.48-2.51c6.31-1.74,12.54-3.73,18.72-5.87a377.8,377.8,0,0,0,36.4-14.65q8.92-4.1,17.63-8.65C436.2,794.25,442,791.11,447.54,787.69Z"/><path class="cls-8" d="M181.9,589.06c0,5.13-.24,10.38-.39,15.57s-.35,10.39-.61,15.59-.55,10.38-.78,15.58-.39,10.4-.37,15.59l-.36,0,4.43-13.93,4.51-13.89c1.5-4.64,3.06-9.25,4.61-13.87s3.15-9.22,4.73-13.82l.22.48c-2.63-1.15-5.25-2.36-7.91-3.57Zm-.05-.08,8.09,3.25c2.74,1.11,5.51,2.21,8.26,3.36l.33.14-.11.35c-1.5,4.63-3,9.28-4.51,13.89s-3,9.26-4.63,13.86l-4.73,13.83-4.81,13.79-.37,1.06v-1.12c0-2.6.09-5.2.14-7.8l.16-7.8c.1-5.2.15-10.41.36-15.61s.48-10.39.73-15.59S181.37,594.25,181.85,589Z"/><path class="cls-29" d="M571.49,469.38c2,1,3.9,1.89,5.89,2.75s4,1.73,6,2.51a108.33,108.33,0,0,0,12.28,4.07,64.65,64.65,0,0,0,12.7,2.24,37.55,37.55,0,0,0,6.45,0,31.61,31.61,0,0,0,6.36-1.16,27.93,27.93,0,0,1-6.31,1.65,38.63,38.63,0,0,1-6.54.3,44.63,44.63,0,0,1-6.52-.68c-2.15-.35-4.29-.81-6.4-1.37a94.21,94.21,0,0,1-12.32-4.33A89.77,89.77,0,0,1,571.49,469.38Z"/><path class="cls-47" d="M608.49,391.89s-36.1,41.6-36.15,65.46c0,0,23.31-45.19,82.48-73Z"/><path class="cls-42" d="M608.23,400.1c5.55-2.72,6.62-5,6.62-5a28.37,28.37,0,0,0-3.61,6.36c.59-.28,2.13-2,2.72-2.24,2.31-3,4-4.51,5.19-6a28.09,28.09,0,0,0-3.46,6,6.45,6.45,0,0,0,2.69-2.12,17.82,17.82,0,0,1,5.52-3.76,23.57,23.57,0,0,0-1.52,2.94,418.92,418.92,0,0,1,46.25-18.24c1.16-5,2.12-12.32.69-16.71,0-.09,0-.18,0-.26l-.16.06a4.63,4.63,0,0,0-1.75-1.57l-.16,2.29c-8.81,3.07-30,8.11-30,8.11-4.67-.7-22,6.43-24.35,7.42,2.59-1,12.79-1.89,12.79-1.89s2.26-1-2,1-13.32,3.77-13.32,3.77a.59.59,0,0,0-.14.06c-.06.27-.13.54-.19.81-1.49,3.93-7.48,20-7.93,23.56C602.3,405,606.06,401.16,608.23,400.1Z"/><path class="cls-42" d="M531.78,380.4a9.92,9.92,0,0,0-3.49-2.69s-10.07-2-14.82-4.2-2.24-1.12-2.24-1.12,11.34,1,14.22,2.11c-2.66-1.11-21.88-9-27.09-8.26,0,0-33-7.83-37.19-10.62,0,0-21.25-7-31.32-5.6,0,0-4.51,0-10-.18-2.1.8-4.2,1.58-6.3,2.36l1.18.34-2.15,0c-2.51.93-5,1.84-7.54,2.75l.75,0-1.18.12c-11.6,4.18-23.28,8.18-35,12.12l2.37.05,15.05.29s-12.3,1.4-15.1,2.52c0,0,20.69,1.4,25.17,2.23,0,0,15.1,2.8,21,2.52,0,0-14.82-3.91-17.06-3.91,0,0,15.1-.28,19.86,2.79,0,0,24.6,6.43,28.52,7.83l-12.31-6.43s20.42,7.83,24.61,10.91c0,0-2.8-2.38-5.65-4.66l8.94,2.95c6.48,3,13.27,5.94,16,6.46,0,0-1.32-.87-3.24-2.26l8.69,2.87a112.29,112.29,0,0,1,9.37,6.94l-6-5.84,3.66,1.2a55,55,0,0,0,7.41,5.2s-1.49-1.75-3.39-3.85l6.16,2.89a19.15,19.15,0,0,0,4.42,1.92l3.09.58,1.49-.41c.06.06-2.5-2.15-2.46-2.09s2.61,2.22,2.6,2.13l3.82,1.26a31,31,0,0,1,3,3.92,27.56,27.56,0,0,1-2-3.59l4.13.51c.06.14,4,.82,4,1s3,1.42,2.88,1.16l-3.35-4.27c0-.05,4,4.23,4,4.19-.09-.25-.2-.5-.3-.75.09-.7.21-1.56.33-2.56.63.81,1.26,1.65,1.87,2.52,0-3.75.09-7.5.17-11.24a10.45,10.45,0,0,0-.63-1.11l.63.86Q531.57,386.33,531.78,380.4Z"/><path d="M640.27,442.34s21.35-7.71,25.2-15.42C665.47,426.92,659,440.05,640.27,442.34Z"/><path d="M160.14,423.44c1-2.62,1.89-5.27,2.75-7.93s1.66-5.33,2.38-8a78.83,78.83,0,0,0,1.75-8.15,30.75,30.75,0,0,0,.41-8.15l-.35-2.95,1.78,2.39a37.89,37.89,0,0,1,4.67,8.33,27.32,27.32,0,0,1,1.37,4.65,17.94,17.94,0,0,1,.17,5v-.24a39.48,39.48,0,0,0,.64,4,30.82,30.82,0,0,0,1.07,3.85,13.09,13.09,0,0,0,1.7,3.36,3.1,3.1,0,0,0,2.44,1.5l1,0,.22,1a30.76,30.76,0,0,1,.07,12.91,23.53,23.53,0,0,1-2.19,6.17l-.79,1.45-.95,1.36c-.16.23-.31.46-.48.68l-.55.62-1.1,1.24.42-1a7.85,7.85,0,0,0,.14.87c.07.33.17.67.27,1a21.56,21.56,0,0,0,.79,2.05,29.82,29.82,0,0,0,2.14,4c.79,1.29,1.7,2.52,2.62,3.74l1.45,1.8,1.5,1.75.14.16.08.16c.57,1.15,1.08,2.27,1.57,3.43s1,2.32,1.37,3.52a27.66,27.66,0,0,1,1,3.76,11,11,0,0,1,.2,2.13,5.49,5.49,0,0,1-.17,1.27,3.36,3.36,0,0,1-.81,1.46l-.34.36-.49.06a51.42,51.42,0,0,1-6.87.43,37.56,37.56,0,0,1-6.9-.6,18.11,18.11,0,0,1-6.73-2.54,9.89,9.89,0,0,1-2.72-2.75,8.67,8.67,0,0,1-1.36-3.66,6.19,6.19,0,0,1-.08-.95l0-.83a10.87,10.87,0,0,0-.2-1.46,11.64,11.64,0,0,0-1-2.83,10.8,10.8,0,0,0-3.85-4.46c-3.37-2.21-7.76-2.85-12-2.62l-.34,0-.24-.14a34.38,34.38,0,0,1-6.05-4.3,35.59,35.59,0,0,1-5-5.37,31.05,31.05,0,0,1-6-13.29,34,34,0,0,1,.58-14.45,50.48,50.48,0,0,1,5.47-13.28A54.83,54.83,0,0,0,130,417.24a33,33,0,0,0,.06,14,29.85,29.85,0,0,0,6.12,12.4,36.23,36.23,0,0,0,4.9,4.93,32.56,32.56,0,0,0,5.7,3.87l-.58-.11,3.45-.09,1.74.14a12.91,12.91,0,0,1,1.74.21,17.51,17.51,0,0,1,6.67,2.49,13.48,13.48,0,0,1,4.82,5.44,14.15,14.15,0,0,1,1.21,3.45,12.17,12.17,0,0,1,.27,1.84l.06.84a4.05,4.05,0,0,0,.07.7,6.41,6.41,0,0,0,2.93,4.45,15.67,15.67,0,0,0,5.68,2.06,43.16,43.16,0,0,0,12.79.09l-.83.42a2.11,2.11,0,0,0,.11-.7,7.88,7.88,0,0,0-.16-1.53,25.49,25.49,0,0,0-.93-3.32c-.39-1.12-.82-2.23-1.28-3.34s-1-2.21-1.48-3.26l.22.32-1.57-1.83-1.51-1.89c-1-1.29-1.91-2.6-2.76-4a33.47,33.47,0,0,1-2.32-4.35,22.27,22.27,0,0,1-.89-2.37c-.12-.41-.24-.82-.33-1.26a7.76,7.76,0,0,1-.19-1.47l0-.53.44-.48a20.66,20.66,0,0,0,5.44-10.07,28,28,0,0,0,.67-5.86,28.88,28.88,0,0,0-.55-5.85l1.23,1a4.69,4.69,0,0,1-2.64-.82,6.73,6.73,0,0,1-1.77-1.76,15.17,15.17,0,0,1-2-4.06,32.67,32.67,0,0,1-1.06-4.17c-.26-1.4-.45-2.78-.58-4.23v-.11l0-.13a15.73,15.73,0,0,0-.06-4.33,24.74,24.74,0,0,0-1.12-4.32,35.58,35.58,0,0,0-1.83-4.15,37.89,37.89,0,0,0-2.33-3.9L169,391a30.3,30.3,0,0,1-.76,8.54,81.06,81.06,0,0,1-2.15,8.17A140.4,140.4,0,0,1,160.14,423.44Z"/><path class="cls-30" d="M148.74,347.1S129.1,352.87,131.41,369c0,0,4.62,13.86-1.15,19.64,0,0-4.62,15-1.16,25.41,0,0,16.17-21.95,13.86-31.19C143,382.9,132.57,358.65,148.74,347.1Z"/><path d="M124.68,403.23c-1-4.91-2.29-9.76-3.74-14.53-.72-2.39-1.54-4.74-2.39-7.08s-1.85-4.6-2.9-6.84l0-.06,0-.09a68,68,0,0,1-1.78-8.76,56.73,56.73,0,0,1-.57-8.94,39.62,39.62,0,0,1,1.16-9,22.24,22.24,0,0,1,4.13-8.35,17.43,17.43,0,0,1,7.75-5.43l1.14-.38.29-.1a4,4,0,0,1,.4-.08c.22,0,.44-.06.65-.07a15.27,15.27,0,0,1,2.44,0,18.06,18.06,0,0,1,4.63,1,25,25,0,0,1,8,4.63,42.21,42.21,0,0,1,6.15,6.68l2,2.6-3.25-.48a18.37,18.37,0,0,0-5.13,0,14.88,14.88,0,0,0-4.88,1.49,10.8,10.8,0,0,0-1.1.63l-1,.75a12.12,12.12,0,0,0-1.74,1.84,15,15,0,0,0-2.34,4.6l0-.3q.19,6.43-.11,12.83c-.1,2.14-.28,4.28-.53,6.4a24.62,24.62,0,0,1-1.44,6.24,26.17,26.17,0,0,0,.84-6.29c.09-2.12.07-4.24,0-6.36-.1-4.24-.32-8.49-.65-12.71v-.15l0-.14a16.41,16.41,0,0,1,2.43-5.38,14.13,14.13,0,0,1,2-2.26l1.19-.94a13,13,0,0,1,1.27-.81,17.33,17.33,0,0,1,5.62-1.95,21.12,21.12,0,0,1,6-.13l-1.28,2.11a39.19,39.19,0,0,0-5.85-6.08,22.63,22.63,0,0,0-7.13-4.05,15.4,15.4,0,0,0-3.93-.83,11.42,11.42,0,0,0-1.94,0l-.44,0c-.12,0,0,0-.13,0l-.24.08-.94.32a14.59,14.59,0,0,0-6.48,4.48,19.63,19.63,0,0,0-3.64,7.24,37.35,37.35,0,0,0-1.26,8.34,66.84,66.84,0,0,0,1.7,17.07l-.06-.15a91.08,91.08,0,0,1,4.6,14.44A117.73,117.73,0,0,1,124.68,403.23Z"/><path class="cls-8" d="M626.9,170c3.71,2.31,7.18,4.77,10.62,7.26,1.71,1.26,3.45,2.46,5.09,3.79.84.64,1.64,1.35,2.45,2l2.46,2.05a33.12,33.12,0,0,0,11.13,6.14c1,.36,2.05.55,3.06.83l1.53.38c.52.09,1,.16,1.55.26l1.52.29.76.16.76.09c1,.1,2,.24,3,.36l1,.12.5.83a16.12,16.12,0,0,1,1,2,17.38,17.38,0,0,1,.7,2,14.62,14.62,0,0,1,.64,4.25,12.09,12.09,0,0,1-3.12,8.16,13.31,13.31,0,0,1-3.29,2.69,18.07,18.07,0,0,1-3.7,1.69,25.19,25.19,0,0,1-7.69,1.2l-.07-.39a58.28,58.28,0,0,0,6.69-3.21,16.45,16.45,0,0,0,5.07-4.4,10,10,0,0,0,1.8-5.77,13.58,13.58,0,0,0-.32-3.2,13,13,0,0,0-.44-1.59,15,15,0,0,0-.56-1.48l1.44,1c-1.1-.24-2.21-.46-3.31-.71a22.42,22.42,0,0,1-3.19-1c-.52-.18-1-.39-1.55-.59l-1.49-.73c-1-.51-2-.94-2.94-1.49s-1.91-1-2.88-1.53-1.89-1.05-2.86-1.54l-2.89-1.46c-1-.49-2-.9-3-1.4l-2.94-1.44c-1-.53-1.91-1.06-2.83-1.64a29.25,29.25,0,0,1-2.67-1.89c-.87-.65-1.7-1.35-2.52-2.06a48.36,48.36,0,0,1-8.79-9.65Z"/><path d="M666.11,460.31a19.58,19.58,0,0,1-.13-5.24,43.84,43.84,0,0,1,.74-5.21c.41-1.7.79-3.41,1.35-5.07.26-.84.5-1.68.79-2.51l.92-2.46a111.54,111.54,0,0,1,9.51-18.67c.87-1.51,1.9-2.92,2.87-4.37s2-2.89,3-4.29c2.15-2.74,4.22-5.55,6.44-8.23s4.48-5.34,6.76-8,4.62-5.19,6.89-7.83l2-2.36-1.51,2.72c-4.84,8.7-9.42,17.54-14.12,26.31s-9.51,17.49-14.28,26.22-9.74,17.35-14.72,26c-2.47,4.32-5,8.62-7.52,12.9s-5.08,8.56-7.66,12.82l-.18-.1q3.39-6.66,6.87-13.26c2.31-4.41,4.63-8.81,7-13.18q7.05-13.15,14.34-26.19c4.91-8.65,9.79-17.33,14.77-25.94s10.09-17.16,14.94-25.85l.51.36q-3.45,3.9-6.81,7.88c-1.15,1.3-2.16,2.71-3.23,4.08L692.51,405c-2.09,2.76-4,5.64-6,8.45l-2.86,4.34c-.93,1.45-2,2.84-2.81,4.35l-2.7,4.42c-.9,1.47-1.67,3-2.51,4.52-.41.76-.86,1.5-1.24,2.27l-1.13,2.33L672.1,438c-.36.78-.68,1.58-1,2.37l-1,2.37c-.31.81-.58,1.62-.87,2.43-.63,1.61-1.07,3.28-1.54,4.93a44,44,0,0,0-1.07,5.05,22.18,22.18,0,0,0-.27,5.14Z"/><path class="cls-12" d="M117,791l61.76-106.63S138.42,735.92,117,791Z"/><path class="cls-45" d="M564.44,614.49l4.69,13c1.17-2.92-.65-9.28-2.18-13.63A13.62,13.62,0,0,1,564.44,614.49Z"/><path class="cls-42" d="M615.69,390.77s-7.7,10.39-8.47,12.7C608.17,403.84,617.11,395.65,615.69,390.77Z"/><path class="cls-27" d="M155.58,357.27s0,16.94-7.7,23.1c0,0-9.24,16.94,4.62,15.4,0,0,12.32-13.86,16.94-7.7C169.44,388.07,160.2,361.89,155.58,357.27Z"/><path class="cls-46" d="M151.84,302.56s83.06-73.89,140.81-90.06C292.65,212.5,212,233.22,151.84,302.56Z"/><path class="cls-25" d="M555.5,678.88s0,39.86-33.26,49.52c0,0,36.72-8.52,41-54.38Z"/><path class="cls-15" d="M140.18,412.33s-23.1,25.41-1.15,37c0,0,16.17,4.62,25.41,8.09,0,0-20.41-19.25-12.71-32.34C151.73,425,149.42,405.4,140.18,412.33Z"/><path class="cls-46" d="M206.41,328s-30.81,15.4-46.21,10.78C160.2,338.79,187.93,349.57,206.41,328Z"/><path class="cls-46" d="M169.44,351.11s32.35-4.62,44.67-13.86C214.11,337.25,187.93,355.73,169.44,351.11Z"/><path class="cls-38" d="M191.78,184S242.6,110.08,375.05,77.74c0,0-109.35,30.8-135.53,47.74C239.52,125.48,208.72,164,191.78,184Z"/><path class="cls-38" d="M275.71,80.05S331.16,55.41,428.18,57l-95.48-7.7S309.59,55.41,275.71,80.05Z"/><path class="cls-38" d="M154,263.32s26.19-43.12,46.21-53.9l38.5-21.56S195.63,214,154,263.32Z"/><path class="cls-48" d="M547.74,614.76c-2.59,6-5.17,11.82-7.81,17.58-1.3,2.9-2.65,5.74-4,8.6l-4.19,8.52-.19-.3a22.93,22.93,0,0,1,7.15,1.45,15.21,15.21,0,0,1,3.23,1.73,11.31,11.31,0,0,1,2.52,2.69l-.31-.07,8-5.34,8-5.28-.22.47c-.63-5-1.2-10-1.76-15-.29-2.5-.53-5-.79-7.51l-.74-7.53.62,0a1.09,1.09,0,0,1-.45.73,2.46,2.46,0,0,1-.63.31,4.68,4.68,0,0,1-1.26.21,11.93,11.93,0,0,1-2.47-.14c-.81-.12-1.61-.27-2.4-.46S548.53,615,547.74,614.76Zm0-.09c.79.15,1.63.33,2.42.45s1.6.25,2.39.31a13.65,13.65,0,0,0,2.39,0,4.07,4.07,0,0,0,1.11-.24,1.48,1.48,0,0,0,.45-.24.64.64,0,0,0,.19-.26l.62,0,1,7.5c.32,2.5.66,5,.94,7.5.6,5,1.19,10,1.71,15l0,.31-.25.16-8.13,5.12-8.18,5.05-.19.12-.12-.19a9.7,9.7,0,0,0-2.36-2.63,14.19,14.19,0,0,0-3.12-1.73,18.22,18.22,0,0,0-3.47-1,20.38,20.38,0,0,0-3.57-.36h-.32l.13-.3,3.9-8.8c1.34-2.92,2.68-5.86,4.08-8.73C542.08,626,544.89,620.23,547.69,614.67Z"/><path class="cls-12" d="M568.31,713.53s-3.06-9,40.83-64.41c0,0-21.94,38.12-24.25,57.75C584.89,706.87,580.61,704,568.31,713.53Z"/><path class="cls-12" d="M125.17,742.68s23.1-20.79,30-42.74C155.2,699.94,150.58,730,125.17,742.68Z"/><circle class="cls-12" cx="175.22" cy="505.51" r="21.95"/><circle class="cls-49" cx="169.48" cy="495.11" r="6.12"/><path class="cls-8" d="M158.66,288.74s94.72-99.34,205.61-125.91c0,0,63.53-1.15,94.71-13.86C459,149,271.86,189.4,158.66,288.74Z"/><path class="cls-8" d="M158,314.88s96.76-30.45,123.21-55.44c0,0-52.09,35.07-57.86,44.31C223.35,303.75,171.21,305.22,158,314.88Z"/><path class="cls-46" d="M151,318.77s63.15-41.58,107.81-50.83C258.77,267.94,212.57,297.21,151,318.77Z"/></g><g class="cls-50"><path class="cls-51" d="M702.53,966.05s133.56-113.24,212-113.24c0,0,66.78-8.71,69.68,20.33,0,0-11.61,43.55,11.62,43.55,0,0,130.73-21.44,156.83,9.61,0,0,11.18,25,73.81,12.07,0,0,105.4-23.35,172.57-148.82,0,0,369.14-398.41,502.7-357.76v589.43H693.82Z"/><path class="cls-8" d="M1901.7,1022.63H693.82a1.4,1.4,0,0,1-1.4-1.63l8.71-55.17a1.41,1.41,0,0,1,.48-.86,880.25,880.25,0,0,1,76.72-56.72c57.5-37.69,103.28-56.82,136.07-56.85,2.88-.37,46.05-5.61,63.76,8.45A18.72,18.72,0,0,1,985.58,873a1.4,1.4,0,0,1,0,.5c-.07.27-7.06,27,1.08,37.6,2.14,2.78,5.11,4.15,9.06,4.18,6.84-1.12,131.87-21,158,10.11a1.85,1.85,0,0,1,.21.33s2.84,6,13,10.32c9.51,4.06,27.5,7.52,59.23,1,.24-.06,26.59-6.06,60.75-27.25,31.52-19.54,76.34-56.37,110.86-120.85a1.61,1.61,0,0,1,.21-.3c.92-1,93.58-100.74,201.38-194.23,63.34-54.93,119.44-97,166.75-125,59.4-35.2,105.16-48.28,136-38.89a1.41,1.41,0,0,1,1,1.35v589.43A1.42,1.42,0,0,1,1901.7,1022.63Zm-1206.23-2.82H1900.29v-587c-30.07-8.56-74.72,4.52-132.75,38.91-47.16,27.94-103.13,69.9-166.33,124.72-105.88,91.83-197.15,189.71-201,193.9-34.84,65-80.07,102.13-111.89,121.84-34.55,21.4-61.27,27.48-61.54,27.53-60.81,12.6-74-10.1-75.31-12.68-25.55-29.88-154.11-9.2-155.4-9l-.23,0c-4.88,0-8.72-1.78-11.41-5.29-8.63-11.24-2.42-36.76-1.64-39.79a16,16,0,0,0-6.33-11c-17-13.49-61.29-7.9-61.74-7.85l-.18,0c-40.14,0-95.34,30.65-134.58,56.37a880.08,880.08,0,0,0-76.07,56.19Z"/></g></g></g></svg>